<svg width="1600" height="500" viewBox="0 0 1600 500" fill="none" xmlns="http://www.w3.org/2000/svg">
<path d="M384.849 409.646C384.849 409.646 385.062 409.865 385.218 410.256L384.849 409.646Z" fill="#EC1C24"/>
<path d="M485.162 53.1697L485.105 52.6377L485.027 52.7937L485.162 53.1697Z" fill="#EC1C24"/>
<path d="M384.202 410.957C384.379 410.524 384.655 410.056 384.847 409.645C384.847 409.645 384.577 410.056 384.202 410.957Z" fill="#EC1C24"/>
<path d="M288.158 415.379L288.527 415.635C288.527 415.635 288.527 415.571 288.371 415.415L288.158 415.379Z" fill="#EC1C24"/>
<path d="M588.449 165.752C589.605 161.078 594.222 157.886 595.492 153.914C597.272 148.672 595.747 142.835 592.031 139.338C592.031 139.338 592.165 139.04 592.031 138.706C591.151 139.529 589.605 138.572 588.725 138.983L588.314 139.338C588.314 139.338 588.058 139.884 588.158 140.466C588.236 141.664 589.25 143.714 588.782 145.012C597.272 151.446 586.98 158.553 586.314 165.639C585.455 177.066 593.868 175.81 596.705 173.505C591.718 174.64 586.924 172.682 588.449 165.752Z" fill="#EC1C24"/>
<path d="M553.401 173.931C555.238 173.754 571.715 170.995 568.02 167.2C566.786 165.945 564.069 166.377 562.714 166.767C558.04 167.824 553.323 166.767 548.861 166.086C548.393 168.704 548.039 171.385 547.606 174.073C549.528 174.13 551.543 174.073 553.401 173.931Z" fill="#EC1C24"/>
<path d="M386.141 411.545C386.318 411.892 386.297 411.835 386.141 411.545Z" fill="#EC1C24"/>
<path d="M590.27 138.218C589.646 138.218 589.156 138.573 588.724 138.984C589.603 138.573 591.15 139.53 592.029 138.708C591.994 138.438 591.504 138.161 590.27 138.218Z" fill="#EC1C24"/>
<path d="M588.157 140.468C588.057 139.879 588.235 139.588 588.235 139.588C587.022 140.843 586.454 143.383 586.745 143.659C587.178 144.007 587.923 144.461 587.923 144.461C588.235 144.652 588.448 144.773 588.781 145.007C589.256 143.716 588.235 141.659 588.157 140.468Z" fill="#EC1C24"/>
<path d="M547.021 174.07L547.432 173.97C548.035 171.388 548.39 168.707 548.858 166.083C548.188 165.889 547.502 165.759 546.808 165.693L547.021 174.07Z" fill="#EC1C24"/>
<path d="M505.279 86.4955C505.728 87.1301 506.301 87.666 506.965 88.0698C507.629 88.4737 508.368 88.7369 509.138 88.8433C509.887 88.9339 510.647 88.8613 511.365 88.6305C509.33 88.063 507.258 87.2615 505.279 86.4955Z" fill="#EC1C24"/>
<path d="M510.506 76.9085H509.527C511.619 78.3555 513.52 80.0791 515.244 81.8027C514.889 79.2138 513.052 77.1993 510.506 76.9085Z" fill="#EC1C24"/>
<path d="M515.318 83.5606C515.418 82.9364 515.34 82.447 515.24 81.8015C513.485 80.0024 511.572 78.3645 509.523 76.9073C506.927 76.9853 504.594 79.2196 504.182 82.2696C504.097 83.7592 504.481 85.2379 505.282 86.4971C507.274 87.3075 509.305 88.0177 511.368 88.625C512.423 88.2181 513.349 87.532 514.044 86.64C514.74 85.7479 515.181 84.6835 515.318 83.5606Z" fill="#EC1C24"/>
<path d="M348.236 140.978C350.627 140.878 352.698 140.197 354.854 138.984C355.124 137.928 355.4 137.027 355.28 136.672C355.01 136.083 354.031 135.459 352.832 134.856" fill="#EC1C24"/>
<path d="M501.679 78.1201C500.019 81.0566 502.267 85.4614 506.672 87.8092C510.978 90.3485 516.297 89.3129 517.453 87.1779C518.9 84.6599 516.886 80.0352 512.503 77.5314C508.076 75.0063 503.26 75.3397 501.679 78.1201Z" fill="#EC1C24"/>
<path d="M39.5863 93.9516C39.5863 79.723 37.5506 70.1403 33.6139 65.2815C29.6844 60.4086 21.9743 58.0395 10.4055 58.0395H0V40.7254H129.313V58.0395H89.7625V346.301C89.7625 366.537 94.9688 381.88 105.459 392.526C115.964 403.152 131.271 408.45 151.231 408.45C171.46 408.45 186.533 402.187 196.591 389.689C206.592 377.198 211.522 358.139 211.522 332.384V93.9516C211.522 79.4889 209.564 69.8211 205.748 65.1468C201.918 60.4086 194.321 58.0395 182.986 58.0395H172.028V40.7254H267.592V58.0395H228.056V340.371C228.056 371.836 219.899 396.144 203.755 412.99C187.533 429.978 164.573 438.411 134.775 438.411C103.424 438.411 79.7045 429.665 63.6175 411.997C47.6511 394.321 39.5863 368.396 39.5863 334.129V93.9516Z" fill="#231F20"/>
<path d="M656.138 93.9516C656.138 79.7229 654.081 70.1402 650.23 65.2815C646.293 60.4086 638.583 58.0395 626.943 58.0395H616.552V40.7254H811.909V15.1053H829.875V151.661H811.909V126.651C811.909 101.86 806.178 84.2625 794.375 73.701C782.615 63.2103 762.867 58.0395 735.198 58.0395H706.336V152.193H752.483V98.7465H770.173V236.281H752.483V208.32C752.483 195.907 749.483 186.26 743.418 179.451C737.389 172.564 728.941 169.195 718.196 169.195H706.336V376.907C706.336 390.98 708.35 400.506 712.301 405.478C716.238 410.45 723.849 412.876 735.198 412.876H753.086V429.878H616.552V412.876H656.138V93.9516Z" fill="#231F20"/>
<path d="M1041.85 412.308C1048.04 414.245 1053.93 415.827 1059.78 416.735C1065.47 417.77 1071.54 418.174 1077.9 418.174C1088.11 418.174 1098.33 417.259 1108.58 415.28C1118.92 413.266 1129.39 410.251 1139.91 406.067C1129.48 403.052 1119.54 400.818 1109.92 399.215C1100.68 397.671 1091.34 396.874 1081.97 396.831C1072.52 396.831 1064.67 398.158 1058.33 400.506C1051.94 403.011 1046.28 407.067 1041.85 412.308ZM1161.21 394.477C1181.01 381.213 1196.1 363.721 1206.45 342.016C1216.85 320.354 1222.09 295.614 1222.09 267.866C1222.14 241.496 1217.81 215.301 1209.27 190.353C1200.73 165.607 1188.1 142.468 1171.91 121.898C1153.83 99.1009 1133.93 82.0138 1112.32 70.6649C1090.76 59.2167 1067 53.4997 1041.31 53.4997C1002.44 53.4997 971.008 67.7497 946.842 96.1644C922.697 124.579 910.66 162.25 910.66 208.979C910.66 254.013 921.151 294.5 942.111 330.568C963.05 366.615 991.209 392.405 1026.53 407.847V404.832C1026.53 396.711 1029.97 390.448 1036.88 386.029C1043.68 381.603 1053.44 379.297 1066.1 379.297C1075.51 379.297 1087.18 380.425 1101.11 382.525C1115.08 384.773 1135.08 388.71 1161.21 394.477ZM1166.37 413.5C1151.81 421.886 1136.14 428.171 1119.82 432.169C1103.17 436.418 1084.87 438.411 1064.88 438.411C1005.45 438.411 956.645 419.274 918.427 380.978C880.21 342.541 861.03 294.053 861.03 235.145C861.03 178.607 880.487 130.7 919.427 91.4262C958.354 52.074 1006.06 32.405 1062.64 32.405C1120.91 32.405 1170.01 52.074 1209.99 91.5468C1249.96 131.055 1269.94 178.905 1269.94 235.145C1269.94 269.589 1262.64 301.21 1248.03 330.036C1233.44 358.671 1212.54 382.461 1185.43 401.328C1270.68 426.438 1337.76 443.681 1386.7 453.03C1435.67 462.364 1480.25 467.06 1520.5 467.06C1534.67 467.06 1547.9 466.457 1559.99 465.343C1572.12 464.244 1583.57 462.541 1594.32 460.116L1599.52 469.961C1574.88 479.877 1551.67 487.395 1529.7 492.389C1507.76 497.496 1487.37 500 1468.49 500C1429.09 500 1363.83 483.303 1272.62 450.015C1227.49 433.602 1192.05 421.366 1166.37 413.5Z" fill="#231F20"/>
<path d="M580.837 139.882C581.348 137.498 582.05 137.867 583.695 137.023C584.539 136.676 587.646 134.207 587.178 133.03C588.235 135.888 588.178 139.101 585.142 143.017C582.894 143.308 580.489 142.896 580.837 139.882ZM565.218 144.109C561.7 142.464 559.622 138.222 559.543 134.342C559.622 137.967 568.275 135.888 569.921 137.179C573.673 140.272 568.786 145.79 565.218 144.109ZM539.995 163.267C537.314 162.388 537.491 162.31 535.087 160.508C531.916 158.026 529.937 156.103 527.533 152.678C516.496 136.711 515.595 137.711 515.24 129.689C515.184 127.533 520.404 129.902 522.071 130.923C525.922 133.172 529.327 136.165 532.774 138.882C536.612 141.939 538.917 143.854 542.91 146.748C540.328 149.67 539.896 154.912 539.726 159.083C539.506 161.842 539.648 160.196 539.995 163.267ZM509.133 88.8472C508.366 88.7375 507.628 88.4728 506.966 88.0692C506.304 87.6656 505.731 87.1315 505.282 86.4994C500.288 84.4992 495.437 81.9599 489.783 81.1158C493.869 68.7455 502.168 71.2706 509.523 76.9096H510.509C513.049 77.2004 514.886 79.2149 515.24 81.8038C518.177 84.5772 520.702 87.457 522.17 89.1167C518.572 89.6556 514.903 89.4893 511.368 88.6273C510.644 88.8472 509.843 88.9607 509.133 88.8472ZM502.267 201.549C484.754 200.726 472.909 201.151 463.695 196.81C462.404 196.243 470.348 206.301 478.825 219.65C461.213 209.982 436.38 169.942 440.366 152.678C447.807 176.127 453.283 193.072 502.267 201.549ZM425.18 119.276C419.413 147.627 428.429 175.07 449.176 195.853C449.176 195.853 401.447 174.439 425.18 119.276ZM412.264 173.935C405.419 157.26 400.191 146.457 399.312 136.442C399.198 135.065 395.439 145.655 389.8 157.806C389.197 138.279 406.412 102.345 419.981 100.544C406.944 114.95 397.475 125.54 412.264 173.935ZM410.327 90.1594C391.758 106.105 383.026 127.476 385.225 149.003C385.225 149.003 366.244 116.361 410.327 90.1594ZM377.082 105.991C374.259 119.553 374.734 134.207 373.131 144.499C363.165 111.353 382.856 81.4704 398.978 82.6621C394.481 93.4435 379.153 96.1247 377.082 105.991ZM586.745 143.662C586.455 143.386 587.022 140.839 588.313 139.336L588.724 138.981C589.157 138.569 589.646 138.222 590.271 138.222C591.505 138.158 591.994 138.435 592.03 138.704L592.384 138.335C590.994 127.909 582.326 121.837 571.992 126.731C560.678 115.772 537.314 115.184 537.647 94.167C540.761 92.4434 547.024 94.1315 549.429 93.9542C547.102 82.7756 540.74 71.7033 526.121 73.6397C531.838 50.3745 496.047 62.4256 490.932 48.5516C488.329 48.963 486.868 50.9562 485.102 52.6443L485.166 53.1692L485.024 52.8004L485.102 52.7011L485.045 52.013C485.379 35.926 500.288 33.1881 507.651 44.6576C506.197 34.9897 484.754 32.4079 480.562 40.9195C475.278 29.0812 487.06 34.0322 478.959 23.5061C468.469 10.5684 451.155 3.48239 435.515 -0.000292641C447.317 5.04995 458.744 12.5615 460.78 30.1168C454.247 24.875 449.353 25.8539 449.353 25.8539C449.353 25.8539 454.148 28.9606 450.268 34.6563C449.41 35.926 436.805 34.0322 437.749 35.3231C428.116 32.4079 422.052 18.9027 413.753 14.5972C398.276 5.57489 368.35 -0.80176 352.618 9.66757C370.173 15.0654 385.693 23.6763 396.609 41.1749C389.8 41.9977 374.046 43.5439 372.989 52.8004C377.763 51.7222 385.126 50.8994 388.275 55.1836C370.329 66.5396 353.108 80.6477 350.313 104.934C358.2 99.1605 362.676 87.457 371.209 81.1158C377.55 76.3209 388.232 75.6967 395.538 75.4201C377.004 84.0097 363.832 92.1313 359.392 105.927C357.122 112.545 358.413 120.291 352.015 125.206C348.845 127.965 345.298 123.915 344.475 125.696C342.227 130.703 348.958 132.952 352.838 134.853C357.98 127.086 366.244 112.737 368.96 96.0466C373.344 108.452 366.457 132.015 354.852 138.981C353.732 142.464 350.703 148.826 350.625 152.252C350.625 174.127 382.522 212.032 356.633 222.487C366.457 228.828 377.394 217.614 382.856 210.784C391.715 220.019 395.871 228.963 406.667 233.29V233.503C409.994 237.22 412.952 258.669 449.779 266.102C443.147 261.683 438.643 255.81 436.38 248.178L437.082 247.554C455.694 257.747 466.745 264.386 470.192 267.535C481.662 278.551 487.336 293.013 487.159 310.902C485.414 324.577 478.179 335.749 465.341 344.516C475.455 346.63 497.749 331.429 497.749 331.429C497.749 331.429 493.968 336.004 488.961 341.289C473.831 353.382 469.469 360.702 444.069 353.17C452.247 360 456.943 360.213 460.056 361.582C458.411 363.171 442.622 372.172 433.677 369.703C416.768 365.107 408.121 359.312 403.305 342.111C401.936 338.941 403.028 332.167 406.256 321.875C410.739 311.427 417.512 304.852 426.393 302.348C410.547 301.334 396.184 308.625 383.026 324.244C376.614 318.534 368.748 313.519 359.314 309.448C363.889 307.512 371.053 302.227 384.849 300.724C378.572 298.787 366.102 297.22 356.633 297.61C343.972 298.319 336.354 298.709 333.758 298.652C335.694 298.709 342.716 280.742 368.585 278.863C363.364 279.161 356.399 275.111 350.916 274.543C346.185 274.226 341.433 274.594 336.808 275.635C319.352 279.295 302.697 288.807 288.802 299.667C240.803 337.395 214.715 407.573 218.609 467.261C218.879 471.035 221.659 487.356 220.78 473.148C219.879 445.4 230.249 424.462 240.647 403.445C235.519 464.97 246.747 469.467 266.984 491.626C247.45 464.36 240.527 447.315 251.251 389.394C254.968 414.652 265.672 444.656 283.816 457.615C268.885 435.612 246.18 382.719 270.055 360.546C263.778 390.798 280.035 414.127 297.704 426.32C294.384 423.071 291.37 419.489 288.703 415.829L288.157 415.383L288.376 415.418C267.963 386.847 268.353 346.261 308.024 329.762C351.526 311.64 353.732 384.812 342.326 397.217C340.255 396.714 324.735 393.501 320.253 387.145C319.096 397.118 338.723 414.95 342.326 413.503C342.326 413.503 327.608 422.504 316.635 421.546C311.443 421.412 302.031 419.433 288.376 415.418C288.532 415.574 288.547 415.695 288.547 415.695C299.179 425.788 313.933 431.349 332.97 432.619C354.03 434.243 371.209 433.874 384.203 410.957C384.579 410.056 384.849 409.644 384.849 409.644C384.984 409.864 385.126 410.056 385.126 410.056C385.416 410.446 385.537 410.524 385.537 410.744L385.693 410.957L385.963 411.311L386.14 411.545C386.317 411.893 386.296 411.836 386.14 411.545L385.963 411.311L385.693 410.957L385.537 410.744C385.537 410.524 385.416 410.446 385.225 410.254C385.138 410.03 385.011 409.823 384.849 409.644C384.657 410.056 384.381 410.524 384.203 410.957C380.664 417.255 364.343 447.237 351.306 482.305C400.837 421.334 421.229 445.4 449.488 435.03L449.779 435.867C446.551 440.237 439.884 445.188 429.663 450.663C443.047 450.018 457.241 444.656 487.847 425.206C488.819 441.407 501.012 452.486 507.353 462.934C509.211 438.08 528.98 394.948 540.719 379.605L541.563 382.031C541.499 382.421 539.938 394.891 536.768 419.199C551.599 392.912 564.906 380.861 568.488 364.54C570.488 355.539 576.375 327.28 576.255 318.825C578.354 284.303 569.722 250.668 533.441 222.211C518.844 217.026 506.927 204.875 501.678 196.2C506.785 197.789 511.19 197.066 523.319 185.674C508.452 187.866 504.594 186.752 490.876 183.738C483.62 182.192 476.69 179.801 468.157 174.638C458.957 169.041 456.396 156.813 451.914 147.102C449.623 142.13 446.906 136.853 446.551 131.349C446.551 130.845 446.75 129.959 446.629 129.469C446.629 129.469 447.764 135.597 460.503 136.278C468.157 136.676 473.555 128.512 480.896 127.788C491.386 126.575 501.678 135.888 507.353 140.981C517.312 149.982 520.759 165.892 533.774 171.424C536.921 172.837 540.269 173.749 543.698 174.127C544.045 175.815 543.889 177.184 543.62 178.964C542.265 188.469 535.299 188.412 529.504 184.504C531.952 188.802 541.995 194.796 546.436 179.667C546.982 177.886 547.273 176.007 547.606 174.07H547.024L546.804 165.693C547.501 165.759 548.189 165.89 548.861 166.083C549.606 162.012 550.741 158.118 553.28 154.522C556.295 156.635 556.139 156.926 559.352 158.65C562.271 160.2 565.374 161.377 568.587 162.154C572.815 163.055 577.631 166.261 580.837 161.487C584.263 156.635 584.241 149.904 588.448 145.443C588.448 145.443 588.668 145.223 588.781 145.01C588.448 144.776 588.235 144.655 587.923 144.464C587.923 144.464 587.178 144.01 586.745 143.662Z" fill="#EC1C24"/>
</svg>
