<svg width="2006" height="681" viewBox="0 0 2006 681" fill="none" xmlns="http://www.w3.org/2000/svg">
<mask id="mask0_117_749" style="mask-type:luminance" maskUnits="userSpaceOnUse" x="72" y="356" width="48" height="31">
<path d="M72.667 356.979H119.334V387H72.667V356.979Z" fill="white"/>
</mask>
<g mask="url(#mask0_117_749)">
<mask id="mask1_117_749" style="mask-type:luminance" maskUnits="userSpaceOnUse" x="72" y="357" width="47" height="30">
<path d="M118.782 386.406L72.9277 357.5L73.0892 357.406L118.782 386.406Z" fill="white"/>
</mask>
<g mask="url(#mask1_117_749)">
<path d="M-5.68164 -5.6875H412.985V686.313H-5.68164V-5.6875Z" fill="black"/>
<path d="M-5.68164 -5.6875H412.985V686.313H-5.68164V-5.6875Z" fill="black"/>
</g>
</g>
<mask id="mask2_117_749" style="mask-type:luminance" maskUnits="userSpaceOnUse" x="31" y="266" width="350" height="213">
<path d="M31.333 266.312H380.666V479H31.333V266.312Z" fill="white"/>
</mask>
<g mask="url(#mask2_117_749)">
<mask id="mask3_117_749" style="mask-type:luminance" maskUnits="userSpaceOnUse" x="31" y="266" width="349" height="213">
<path d="M363.354 339.646L237.156 266.776V298.031L311.984 341.229L339.328 357.021L339.37 357.047L205.745 441.646L118.781 386.406L72.9271 357.5L73.0885 357.406L101.38 341.073L174.344 298.953V267.698L47.3438 341.015L47.3281 341.031L31.5938 368.552L42.2083 375.245L205.755 478.406L370.089 374.765L379.917 368.562L363.354 339.646Z" fill="white"/>
</mask>
<g mask="url(#mask3_117_749)">
<path d="M-5.68262 -5.6875H412.984V686.313H-5.68262V-5.6875Z" fill="#034EA2"/>
</g>
</g>
<mask id="mask4_117_749" style="mask-type:luminance" maskUnits="userSpaceOnUse" x="204" y="0" width="204" height="442">
<path d="M204.984 0.979248H407.333V441.667H204.984V0.979248Z" fill="white"/>
</mask>
<g mask="url(#mask4_117_749)">
<mask id="mask5_117_749" style="mask-type:luminance" maskUnits="userSpaceOnUse" x="205" y="0" width="202" height="442">
<path d="M205.745 441.646V0.979248L406.49 351.776L395.917 358.443L379.891 368.563L363.354 339.646L237.157 119.099V421.458" fill="white"/>
</mask>
<g mask="url(#mask5_117_749)">
<path d="M-5.68164 -5.6875H412.985V686.313H-5.68164V-5.6875Z" fill="#E0BB05"/>
</g>
</g>
<mask id="mask6_117_749" style="mask-type:luminance" maskUnits="userSpaceOnUse" x="4" y="0" width="202" height="442">
<path d="M4.98438 0.979248H206V441.667H4.98438V0.979248Z" fill="white"/>
</mask>
<g mask="url(#mask6_117_749)">
<mask id="mask7_117_749" style="mask-type:luminance" maskUnits="userSpaceOnUse" x="5" y="0" width="201" height="442">
<path d="M174.343 421.458V119.099L47.3434 341.016L47.3278 341.031L31.5934 368.552L16.3538 358.938L5.02051 351.792L205.744 0.979248V441.646" fill="white"/>
</mask>
<g mask="url(#mask7_117_749)">
<path d="M-5.68262 -5.6875H412.984V686.313H-5.68262V-5.6875Z" fill="#FFDD00"/>
</g>
</g>
<mask id="mask8_117_749" style="mask-type:luminance" maskUnits="userSpaceOnUse" x="0" y="381" width="206" height="300">
<path d="M0.984375 381.667H206V680.333H0.984375V381.667Z" fill="white"/>
</mask>
<g mask="url(#mask8_117_749)">
<mask id="mask9_117_749" style="mask-type:luminance" maskUnits="userSpaceOnUse" x="0" y="381" width="206" height="299">
<path d="M178.26 591.203L99.6094 476.833L178.25 526.562L178.26 591.203ZM0.984375 381.896L205.745 679.682V511.443L0.984375 381.896Z" fill="white"/>
</mask>
<g mask="url(#mask9_117_749)">
<path d="M-5.68262 -5.6875H412.984V686.313H-5.68262V-5.6875Z" fill="#C41A26"/>
</g>
</g>
<mask id="mask10_117_749" style="mask-type:luminance" maskUnits="userSpaceOnUse" x="204" y="381" width="204" height="300">
<path d="M204.984 381.667H407.333V680.333H204.984V381.667Z" fill="white"/>
</mask>
<g mask="url(#mask10_117_749)">
<mask id="mask11_117_749" style="mask-type:luminance" maskUnits="userSpaceOnUse" x="205" y="381" width="202" height="299">
<path d="M233.235 526.417L308.782 477.672L233.235 589.724V526.417ZM205.745 511.443V679.682L406.5 381.896L205.745 511.443Z" fill="white"/>
</mask>
<g mask="url(#mask11_117_749)">
<path d="M-5.68164 -5.6875H412.985V686.313H-5.68164V-5.6875Z" fill="#ED1C24"/>
</g>
</g>
<mask id="mask12_117_749" style="mask-type:luminance" maskUnits="userSpaceOnUse" x="517" y="406" width="48" height="76">
<path d="M517.183 406.849H564.667V481.667H517.183V406.849Z" fill="white"/>
</mask>
<g mask="url(#mask12_117_749)">
<mask id="mask13_117_749" style="mask-type:luminance" maskUnits="userSpaceOnUse" x="517" y="406" width="48" height="76">
<path d="M520.813 481.917C519.677 481.917 518.787 481.599 518.146 480.958C517.506 480.318 517.183 479.396 517.183 478.182V410.573C517.183 409.37 517.506 408.453 518.146 407.813C518.787 407.172 519.662 406.849 520.813 406.849H561.052C562.037 406.849 562.787 407.104 563.292 407.599C563.797 408.089 564.037 408.771 564.037 409.625C564.037 410.625 563.787 411.344 563.292 411.813C562.797 412.276 562.052 412.505 561.052 412.505H523.573V441.037H558.917C559.907 441.037 560.651 441.266 561.157 441.729C561.662 442.198 561.907 442.891 561.907 443.813C561.907 444.729 561.651 445.453 561.157 445.943C560.662 446.438 559.917 446.693 558.917 446.693H523.573V476.292H561.052C562.037 476.292 562.787 476.516 563.292 476.985C563.797 477.453 564.037 478.146 564.037 479.063C564.037 479.985 563.787 480.693 563.292 481.198C562.797 481.703 562.052 481.943 561.052 481.943L520.813 481.917Z" fill="white"/>
</mask>
<g mask="url(#mask13_117_749)">
<path d="M517.183 406.849H563.849V481.516H517.183V406.849Z" fill="black"/>
</g>
</g>
<mask id="mask14_117_749" style="mask-type:luminance" maskUnits="userSpaceOnUse" x="517" y="199" width="89" height="138">
<path d="M517.183 199.255H606V336.334H517.183V199.255Z" fill="white"/>
</mask>
<g mask="url(#mask14_117_749)">
<mask id="mask15_117_749" style="mask-type:luminance" maskUnits="userSpaceOnUse" x="517" y="199" width="89" height="137">
<path d="M526.865 335.802C523.756 335.802 521.37 334.964 519.688 333.281C518.011 331.599 517.183 329.214 517.183 326.12V208.938C517.183 205.844 518.021 203.453 519.703 201.776C521.386 200.094 523.771 199.255 526.865 199.255H598.141C600.594 199.255 602.506 199.87 603.849 201.094C605.198 202.323 605.891 204.094 605.891 206.417C605.891 208.87 605.209 210.735 603.849 212.026C602.49 213.323 600.584 213.964 598.141 213.964H534.61V259.11H594.078C596.532 259.11 598.396 259.75 599.688 261.042C600.985 262.333 601.625 264.136 601.625 266.469C601.625 268.922 600.969 270.761 599.688 271.99C598.412 273.214 596.532 273.828 594.078 273.828H534.61V321.083H598.141C600.594 321.083 602.506 321.693 603.849 322.922C605.198 324.146 605.891 325.99 605.891 328.443C605.891 330.896 605.209 332.735 603.849 333.964C602.49 335.188 600.584 335.802 598.141 335.802H526.865Z" fill="white"/>
</mask>
<g mask="url(#mask15_117_749)">
<path d="M517.183 199.255H606.516V335.255H517.183V199.255Z" fill="#C41A26"/>
</g>
</g>
<mask id="mask16_117_749" style="mask-type:luminance" maskUnits="userSpaceOnUse" x="610" y="413" width="38" height="70">
<path d="M610.562 413.667H647.896V483H610.562V413.667Z" fill="white"/>
</mask>
<g mask="url(#mask16_117_749)">
<mask id="mask17_117_749" style="mask-type:luminance" maskUnits="userSpaceOnUse" x="610" y="413" width="38" height="70">
<path d="M638.776 482.776C634.932 482.776 631.75 482.068 629.188 480.64C626.63 479.213 624.719 477.172 623.443 474.521C622.161 471.864 621.521 468.573 621.521 464.667V435.495H613.656C612.734 435.495 611.99 435.265 611.417 434.802C610.839 434.333 610.562 433.682 610.562 432.828C610.562 432.042 610.839 431.427 611.417 430.958C611.99 430.495 612.719 430.265 613.656 430.265H621.521V416.974C621.521 415.838 621.802 415 622.375 414.469C622.948 413.932 623.76 413.667 624.828 413.667C625.813 413.667 626.599 413.932 627.172 414.469C627.75 415 628.026 415.838 628.026 416.974V430.281H642.401C643.385 430.281 644.135 430.505 644.641 430.974C645.146 431.443 645.385 432.052 645.385 432.838C645.385 433.693 645.135 434.349 644.641 434.812C644.146 435.281 643.401 435.505 642.401 435.505H628.026V463.812C628.026 468.146 628.906 471.443 630.693 473.719C632.479 476 635.417 477.135 639.536 477.135C640.948 477.135 642.146 476.974 643.094 476.656C644.042 476.333 644.854 476.172 645.495 476.172C645.99 476.172 646.427 476.385 646.828 476.812C647.229 477.239 647.417 477.922 647.417 478.838C647.417 479.411 647.292 479.974 647.042 480.547C646.786 481.12 646.349 481.469 645.708 481.614C644.922 481.896 643.854 482.161 642.505 482.411C641.161 482.667 639.922 482.786 638.786 482.786" fill="white"/>
</mask>
<g mask="url(#mask17_117_749)">
<path d="M610.562 413.667H647.896V483H610.562V413.667Z" fill="black"/>
</g>
</g>
<mask id="mask18_117_749" style="mask-type:luminance" maskUnits="userSpaceOnUse" x="650" y="199" width="120" height="139">
<path d="M650.25 199.255H770V337.667H650.25V199.255Z" fill="white"/>
</mask>
<g mask="url(#mask18_117_749)">
<mask id="mask19_117_749" style="mask-type:luminance" maskUnits="userSpaceOnUse" x="650" y="199" width="119" height="139">
<path d="M709.714 337.162C706.74 337.162 704.49 336.349 702.943 334.735C701.396 333.12 700.62 330.828 700.62 327.854V214.547H658.198C655.745 214.547 653.807 213.87 652.38 212.511C650.953 211.151 650.25 209.271 650.25 206.802C650.25 204.333 650.953 202.485 652.38 201.188C653.807 199.896 655.745 199.255 658.198 199.255H761.036C763.62 199.255 765.583 199.896 766.943 201.188C768.302 202.485 768.969 204.349 768.969 206.802C768.969 209.255 768.286 211.162 766.943 212.521C765.594 213.88 763.62 214.563 761.036 214.563H718.62V327.87C718.62 330.844 717.875 333.136 716.396 334.75C714.917 336.365 712.677 337.177 709.714 337.177" fill="white"/>
</mask>
<g mask="url(#mask19_117_749)">
<path d="M650.25 199.255H768.917V336.589H650.25V199.255Z" fill="#C41A26"/>
</g>
</g>
<mask id="mask20_117_749" style="mask-type:luminance" maskUnits="userSpaceOnUse" x="697" y="406" width="44" height="77">
<path d="M697.864 406.213H740.666V483H697.864V406.213Z" fill="white"/>
</mask>
<g mask="url(#mask20_117_749)">
<mask id="mask21_117_749" style="mask-type:luminance" maskUnits="userSpaceOnUse" x="697" y="406" width="44" height="77">
<path d="M701.172 482.557C700.109 482.557 699.291 482.281 698.718 481.708C698.146 481.13 697.864 480.318 697.864 479.255V409.505C697.864 408.375 698.146 407.547 698.718 407.01C699.291 406.479 700.109 406.213 701.172 406.213C702.161 406.213 702.948 406.479 703.521 407.01C704.093 407.547 704.375 408.375 704.375 409.521V442.318H703.078C704.494 438.068 706.932 434.828 710.375 432.625C713.812 430.427 717.776 429.318 722.239 429.318C726.359 429.318 729.786 430.068 732.521 431.557C735.255 433.052 737.291 435.281 738.64 438.265C739.984 441.255 740.666 444.932 740.666 449.333V479.255C740.666 480.318 740.385 481.13 739.812 481.708C739.239 482.281 738.468 482.557 737.468 482.557C736.401 482.557 735.588 482.281 735.015 481.708C734.442 481.13 734.161 480.318 734.161 479.255V449.864C734.161 444.693 733.135 440.906 731.067 438.521C729 436.135 725.744 434.958 721.265 434.958C716.161 434.958 712.052 436.531 708.974 439.693C705.896 442.854 704.349 447.094 704.349 452.411V479.255C704.349 481.453 703.281 482.557 701.146 482.557" fill="white"/>
</mask>
<g mask="url(#mask21_117_749)">
<path d="M697.864 406.213H740.531V482.213H697.864V406.213Z" fill="black"/>
</g>
</g>
<mask id="mask22_117_749" style="mask-type:luminance" maskUnits="userSpaceOnUse" x="796" y="429" width="48" height="55">
<path d="M796.886 429.318H843.334V483H796.886V429.318Z" fill="white"/>
</mask>
<g mask="url(#mask22_117_749)">
<mask id="mask23_117_749" style="mask-type:luminance" maskUnits="userSpaceOnUse" x="796" y="429" width="48" height="54">
<path d="M822.542 482.771C817.219 482.771 812.636 481.703 808.808 479.573C804.979 477.438 802.032 474.396 799.969 470.412C797.901 466.427 796.886 461.719 796.886 456.25C796.886 450.849 797.912 446.156 799.979 442.146C802.047 438.13 804.886 435 808.542 432.729C812.193 430.464 816.407 429.318 821.167 429.318C824.646 429.318 827.714 429.906 830.381 431.078C833.047 432.25 835.313 433.917 837.193 436.078C839.073 438.24 840.516 440.865 841.516 443.958C842.516 447.052 843.006 450.547 843.006 454.438C843.006 455.438 842.74 456.182 842.209 456.677C841.672 457.172 840.953 457.427 840.021 457.427H801.568V452.636H838.938L837.235 454.026C837.235 449.906 836.636 446.412 835.422 443.531C834.209 440.651 832.422 438.438 830.047 436.88C827.672 435.318 824.74 434.531 821.261 434.531C817.354 434.531 814.063 435.438 811.354 437.25C808.646 439.063 806.646 441.547 805.302 444.703C803.953 447.865 803.276 451.505 803.276 455.625V456.156C803.276 462.969 804.943 468.214 808.276 471.865C811.61 475.516 816.302 477.344 822.328 477.344C824.953 477.344 827.485 476.985 829.938 476.276C832.396 475.573 834.782 474.36 837.125 472.651C837.834 472.156 838.526 471.906 839.209 471.906C839.886 471.906 840.448 472.078 840.912 472.438C841.381 472.797 841.688 473.24 841.875 473.771C842.063 474.302 842.021 474.88 841.766 475.479C841.516 476.078 841.032 476.636 840.328 477.13C838.063 478.969 835.328 480.37 832.125 481.333C828.927 482.292 825.74 482.771 822.542 482.771Z" fill="white"/>
</mask>
<g mask="url(#mask23_117_749)">
<path d="M796.886 429.318H843.552V482.651H796.886V429.318Z" fill="black"/>
</g>
</g>
<mask id="mask24_117_749" style="mask-type:luminance" maskUnits="userSpaceOnUse" x="823" y="197" width="117" height="141">
<path d="M823.599 197.901H939.333V337.667H823.599V197.901Z" fill="white"/>
</mask>
<g mask="url(#mask24_117_749)">
<mask id="mask25_117_749" style="mask-type:luminance" maskUnits="userSpaceOnUse" x="823" y="197" width="116" height="141">
<path d="M832.505 337.167C829.666 337.167 827.463 336.354 825.916 334.739C824.369 333.125 823.599 330.833 823.599 327.859V207.193C823.599 204.099 824.369 201.781 825.916 200.219C827.463 198.661 829.666 197.901 832.505 197.901C835.479 197.901 837.734 198.672 839.281 200.219C840.828 201.765 841.599 204.099 841.599 207.193V258.911H920.64V207.193C920.64 204.099 921.411 201.765 922.958 200.219C924.505 198.672 926.771 197.901 929.744 197.901C932.583 197.901 934.786 198.672 936.333 200.219C937.88 201.765 938.651 204.099 938.651 207.193V327.859C938.651 330.833 937.88 333.125 936.333 334.739C934.786 336.354 932.583 337.167 929.744 337.167C926.771 337.167 924.521 336.354 922.958 334.739C921.401 333.125 920.64 330.833 920.64 327.859V274.219H841.614V327.859C841.614 330.833 840.864 333.125 839.385 334.739C837.906 336.354 835.614 337.167 832.505 337.167Z" fill="white"/>
</mask>
<g mask="url(#mask25_117_749)">
<path d="M823.599 197.901H938.265V336.568H823.599V197.901Z" fill="#C41A26"/>
</g>
</g>
<mask id="mask26_117_749" style="mask-type:luminance" maskUnits="userSpaceOnUse" x="898" y="429" width="28" height="54">
<path d="M898.781 429.141H926V483H898.781V429.141Z" fill="white"/>
</mask>
<g mask="url(#mask26_117_749)">
<mask id="mask27_117_749" style="mask-type:luminance" maskUnits="userSpaceOnUse" x="898" y="429" width="28" height="54">
<path d="M902.089 482.552C901.021 482.552 900.208 482.276 899.635 481.703C899.063 481.125 898.781 480.312 898.781 479.245V432.943C898.781 431.807 899.063 430.953 899.635 430.38C900.208 429.807 901.021 429.526 902.089 429.526C903.073 429.526 903.849 429.807 904.38 430.38C904.917 430.953 905.182 431.807 905.182 432.943V442.422H904.115C905.396 438.234 907.672 435.005 910.979 432.729C914.286 430.448 918.234 429.286 922.849 429.208C923.703 429.14 924.406 429.312 924.979 429.739C925.552 430.166 925.833 430.849 925.833 431.765C925.901 432.765 925.688 433.526 925.193 434.062C924.703 434.594 923.875 434.927 922.74 435.073L921.25 435.182C916.208 435.672 912.302 437.338 909.542 440.182C906.781 443.021 905.38 446.849 905.38 451.672V479.245C905.38 480.312 905.115 481.125 904.583 481.703C904.047 482.276 903.219 482.552 902.073 482.552" fill="white"/>
</mask>
<g mask="url(#mask27_117_749)">
<path d="M898.781 429.141H925.448V482.474H898.781V429.141Z" fill="black"/>
</g>
</g>
<mask id="mask28_117_749" style="mask-type:luminance" maskUnits="userSpaceOnUse" x="973" y="429" width="48" height="55">
<path d="M973.953 429.318H1020.62V483H973.953V429.318Z" fill="white"/>
</mask>
<g mask="url(#mask28_117_749)">
<mask id="mask29_117_749" style="mask-type:luminance" maskUnits="userSpaceOnUse" x="973" y="429" width="48" height="54">
<path d="M999.62 482.771C994.297 482.771 989.714 481.703 985.885 479.573C982.057 477.438 979.109 474.396 977.047 470.412C974.979 466.427 973.953 461.719 973.953 456.25C973.953 450.849 974.979 446.156 977.047 442.146C979.109 438.13 981.953 435 985.62 432.729C989.286 430.464 993.469 429.318 998.229 429.318C1001.71 429.318 1004.78 429.906 1007.44 431.078C1010.11 432.25 1012.38 433.917 1014.26 436.078C1016.14 438.24 1017.58 440.865 1018.56 443.958C1019.55 447.052 1020.06 450.547 1020.06 454.438C1020.06 455.438 1019.79 456.182 1019.26 456.677C1018.72 457.172 1017.99 457.427 1017.07 457.427H978.63V452.636H1016.01L1014.3 454.026C1014.3 449.906 1013.68 446.412 1012.48 443.531C1011.29 440.651 1009.48 438.438 1007.11 436.88C1004.74 435.318 1001.8 434.531 998.323 434.531C994.417 434.531 991.125 435.438 988.417 437.25C985.708 439.063 983.714 441.547 982.365 444.703C981.016 447.865 980.339 451.505 980.339 455.625V456.156C980.339 462.969 982.005 468.214 985.339 471.865C988.672 475.516 993.365 477.344 999.391 477.344C1002.02 477.344 1004.55 476.985 1007.01 476.276C1009.46 475.573 1011.84 474.36 1014.19 472.651C1014.9 472.156 1015.59 471.906 1016.27 471.906C1016.95 471.906 1017.51 472.078 1017.98 472.438C1018.44 472.797 1018.77 473.24 1018.94 473.771C1019.11 474.302 1019.08 474.88 1018.83 475.479C1018.58 476.078 1018.1 476.636 1017.39 477.13C1015.13 478.969 1012.39 480.37 1009.19 481.333C1005.99 482.292 1002.8 482.771 999.604 482.771" fill="white"/>
</mask>
<g mask="url(#mask29_117_749)">
<path d="M973.953 429.318H1020.62V482.651H973.953V429.318Z" fill="black"/>
</g>
</g>
<mask id="mask30_117_749" style="mask-type:luminance" maskUnits="userSpaceOnUse" x="1075" y="429" width="43" height="54">
<path d="M1075.64 429.531H1118V482.865H1075.64V429.531Z" fill="white"/>
</mask>
<g mask="url(#mask30_117_749)">
<mask id="mask31_117_749" style="mask-type:luminance" maskUnits="userSpaceOnUse" x="1075" y="429" width="43" height="54">
<path d="M1094.05 482.771C1089.93 482.771 1086.5 482.021 1083.77 480.531C1081.03 479.036 1079 476.807 1077.65 473.823C1076.3 470.839 1075.64 467.156 1075.64 462.745V432.943C1075.64 431.797 1075.91 430.958 1076.48 430.385C1077.06 429.813 1077.88 429.531 1078.93 429.531C1079.93 429.531 1080.7 429.813 1081.27 430.385C1081.84 430.958 1082.13 431.813 1082.13 432.943V462.438C1082.13 467.411 1083.15 471.115 1085.22 473.568C1087.29 476.021 1090.51 477.25 1094.91 477.25C1099.74 477.25 1103.65 475.635 1106.62 472.411C1109.59 469.182 1111.09 464.943 1111.09 459.688V432.943C1111.09 431.813 1111.36 430.958 1111.94 430.385C1112.51 429.813 1113.33 429.531 1114.39 429.531C1115.38 429.531 1116.17 429.813 1116.74 430.385C1117.31 430.958 1117.59 431.813 1117.59 432.943V479.25C1117.59 481.448 1116.57 482.557 1114.5 482.557C1113.5 482.557 1112.72 482.276 1112.15 481.703C1111.58 481.13 1111.3 480.318 1111.3 479.25V468.719L1112.58 469.464C1111.23 473.797 1108.89 477.089 1105.55 479.37C1102.22 481.651 1098.38 482.771 1094.06 482.771" fill="white"/>
</mask>
<g mask="url(#mask31_117_749)">
<path d="M1075.64 429.531H1116.96V482.865H1075.64V429.531Z" fill="black"/>
</g>
</g>
<mask id="mask32_117_749" style="mask-type:luminance" maskUnits="userSpaceOnUse" x="1082" y="199" width="120" height="139">
<path d="M1082.55 199.255H1202V337.667H1082.55V199.255Z" fill="white"/>
</mask>
<g mask="url(#mask32_117_749)">
<mask id="mask33_117_749" style="mask-type:luminance" maskUnits="userSpaceOnUse" x="1082" y="199" width="120" height="139">
<path d="M1142.02 337.162C1139.05 337.162 1136.79 336.349 1135.24 334.735C1133.7 333.12 1132.93 330.828 1132.93 327.854V214.547H1090.5C1088.05 214.547 1086.11 213.87 1084.69 212.511C1083.26 211.151 1082.55 209.271 1082.55 206.802C1082.55 204.333 1083.26 202.485 1084.69 201.188C1086.11 199.896 1088.05 199.255 1090.5 199.255H1193.34C1195.93 199.255 1197.89 199.896 1199.24 201.188C1200.61 202.485 1201.29 204.349 1201.29 206.802C1201.29 209.255 1200.61 211.162 1199.24 212.521C1197.89 213.88 1195.93 214.563 1193.34 214.563H1150.93V327.87C1150.93 330.844 1150.18 333.136 1148.7 334.75C1147.22 336.365 1144.99 337.177 1142.02 337.177" fill="white"/>
</mask>
<g mask="url(#mask33_117_749)">
<path d="M1082.55 199.255H1201.22V336.589H1082.55V199.255Z" fill="#034EA2"/>
</g>
</g>
<mask id="mask34_117_749" style="mask-type:luminance" maskUnits="userSpaceOnUse" x="1177" y="429" width="74" height="54">
<path d="M1177.53 429.318H1250.86V482.651H1177.53V429.318Z" fill="white"/>
</mask>
<g mask="url(#mask34_117_749)">
<mask id="mask35_117_749" style="mask-type:luminance" maskUnits="userSpaceOnUse" x="1177" y="429" width="74" height="54">
<path d="M1180.83 482.557C1179.77 482.557 1178.95 482.276 1178.38 481.703C1177.81 481.13 1177.53 480.318 1177.53 479.25V432.932C1177.53 431.797 1177.81 430.958 1178.38 430.386C1178.95 429.813 1179.77 429.531 1180.83 429.531C1181.82 429.531 1182.59 429.813 1183.13 430.386C1183.66 430.958 1183.93 431.813 1183.93 432.943V443.052L1182.76 442.302C1184.02 438.115 1186.18 434.901 1189.23 432.677C1192.29 430.448 1195.94 429.318 1200.21 429.318C1204.76 429.318 1208.4 430.422 1211.13 432.625C1213.86 434.823 1215.65 438.115 1216.5 442.516H1214.9C1216.11 438.542 1218.35 435.344 1221.66 432.932C1224.97 430.516 1228.85 429.318 1233.31 429.318C1237.14 429.318 1240.33 430.063 1242.85 431.557C1245.36 433.052 1247.26 435.266 1248.54 438.208C1249.82 441.156 1250.46 444.865 1250.46 449.344V479.25C1250.46 480.318 1250.18 481.13 1249.6 481.703C1249.03 482.276 1248.22 482.557 1247.15 482.557C1246.15 482.557 1245.38 482.276 1244.81 481.703C1244.23 481.13 1243.95 480.318 1243.95 479.25V449.865C1243.95 444.693 1243.05 440.901 1241.23 438.516C1239.42 436.13 1236.4 434.958 1232.13 434.958C1227.58 434.958 1223.97 436.531 1221.26 439.693C1218.55 442.849 1217.22 447.13 1217.22 452.516V479.25C1217.22 480.318 1216.94 481.13 1216.36 481.703C1215.79 482.276 1215.02 482.557 1214.02 482.557C1212.95 482.557 1212.14 482.276 1211.57 481.703C1211 481.13 1210.71 480.318 1210.71 479.25V449.865C1210.71 444.693 1209.81 440.901 1208 438.516C1206.18 436.13 1203.18 434.958 1199 434.958C1194.38 434.958 1190.73 436.531 1188.03 439.693C1185.34 442.849 1184 447.13 1184 452.516V479.25C1184 481.448 1182.93 482.557 1180.79 482.557" fill="white"/>
</mask>
<g mask="url(#mask35_117_749)">
<path d="M1177.53 429.318H1250.86V482.651H1177.53V429.318Z" fill="black"/>
</g>
</g>
<mask id="mask36_117_749" style="mask-type:luminance" maskUnits="userSpaceOnUse" x="1238" y="239" width="57" height="99">
<path d="M1238.67 239.412H1294.67V337.667H1238.67V239.412Z" fill="white"/>
</mask>
<g mask="url(#mask36_117_749)">
<mask id="mask37_117_749" style="mask-type:luminance" maskUnits="userSpaceOnUse" x="1238" y="239" width="57" height="99">
<path d="M1247.77 337.162C1244.8 337.162 1242.55 336.386 1241 334.839C1239.45 333.292 1238.67 331.026 1238.67 328.052V249.026C1238.67 246.068 1239.44 243.839 1240.98 242.349C1242.53 240.854 1244.67 240.12 1247.39 240.12C1250.1 240.12 1252.2 240.87 1253.68 242.349C1255.16 243.828 1255.91 246.068 1255.91 249.026V263.948H1253.97C1256.04 256.203 1259.91 250.333 1265.6 246.323C1271.29 242.307 1278.44 240.052 1287.09 239.547C1289.16 239.412 1290.84 239.906 1292.13 241C1293.43 242.094 1294.13 243.932 1294.27 246.521C1294.4 248.974 1293.81 250.948 1292.52 252.427C1291.22 253.906 1289.22 254.787 1286.52 255.042L1283.04 255.24C1274.52 256.146 1267.96 258.922 1263.39 263.573C1258.81 268.229 1256.51 274.615 1256.51 282.745V328.052C1256.51 331.026 1255.76 333.281 1254.28 334.839C1252.8 336.401 1250.63 337.162 1247.8 337.162" fill="white"/>
</mask>
<g mask="url(#mask37_117_749)">
<path d="M1238.67 239.412H1294.67V336.745H1238.67V239.412Z" fill="#034EA2"/>
</g>
</g>
<mask id="mask38_117_749" style="mask-type:luminance" maskUnits="userSpaceOnUse" x="1345" y="199" width="24" height="139">
<path d="M1345.58 199.062H1368.24V337.667H1345.58V199.062Z" fill="white"/>
</mask>
<g mask="url(#mask38_117_749)">
<mask id="mask39_117_749" style="mask-type:luminance" maskUnits="userSpaceOnUse" x="1345" y="199" width="24" height="138">
<path d="M1356.82 336.766C1354.11 336.766 1351.98 335.927 1350.43 334.245C1348.89 332.568 1348.11 330.245 1348.11 327.271V249.995C1348.11 246.901 1348.89 244.542 1350.43 242.927C1351.98 241.313 1354.11 240.5 1356.82 240.5C1359.66 240.5 1361.86 241.313 1363.41 242.927C1364.95 244.542 1365.72 246.901 1365.72 249.995V327.286C1365.72 330.26 1364.98 332.578 1363.5 334.26C1362.02 335.938 1359.78 336.781 1356.82 336.781M1356.82 219.594C1353.34 219.594 1350.59 218.661 1348.59 216.781C1346.59 214.901 1345.58 212.422 1345.58 209.328C1345.58 205.969 1346.58 203.422 1348.58 201.672C1350.58 199.927 1353.32 199.062 1356.82 199.062C1360.56 199.062 1363.38 199.927 1365.24 201.672C1367.11 203.422 1368.06 205.969 1368.06 209.328C1368.06 212.422 1367.13 214.911 1365.24 216.781C1363.36 218.646 1360.55 219.594 1356.82 219.594Z" fill="white"/>
</mask>
<g mask="url(#mask39_117_749)">
<path d="M1345.58 199.062H1368.24V336.391H1345.58V199.062Z" fill="#034EA2"/>
</g>
</g>
<mask id="mask40_117_749" style="mask-type:luminance" maskUnits="userSpaceOnUse" x="1380" y="406" width="49" height="76">
<path d="M1380.78 406.849H1428.67V481.667H1380.78V406.849Z" fill="white"/>
</mask>
<g mask="url(#mask40_117_749)">
<mask id="mask41_117_749" style="mask-type:luminance" maskUnits="userSpaceOnUse" x="1380" y="406" width="48" height="76">
<path d="M1384.41 481.917C1383.28 481.917 1382.38 481.599 1381.74 480.958C1381.1 480.318 1380.78 479.396 1380.78 478.182V410.573C1380.78 409.37 1381.1 408.453 1381.74 407.813C1382.38 407.172 1383.26 406.849 1384.41 406.849H1424.65C1425.64 406.849 1426.38 407.104 1426.89 407.599C1427.4 408.089 1427.64 408.771 1427.64 409.625C1427.64 410.625 1427.38 411.344 1426.89 411.813C1426.4 412.276 1425.65 412.505 1424.65 412.505H1387.17V441.037H1422.52C1423.5 441.037 1424.24 441.266 1424.76 441.729C1425.26 442.198 1425.5 442.891 1425.5 443.813C1425.5 444.729 1425.25 445.453 1424.76 445.943C1424.26 446.438 1423.52 446.693 1422.52 446.693H1387.17V476.292H1424.65C1425.64 476.292 1426.38 476.516 1426.89 476.985C1427.4 477.448 1427.64 478.146 1427.64 479.063C1427.64 479.985 1427.38 480.693 1426.89 481.198C1426.4 481.703 1425.65 481.943 1424.65 481.943L1384.41 481.917Z" fill="white"/>
</mask>
<g mask="url(#mask41_117_749)">
<path d="M1380.78 406.849H1427.45V481.516H1380.78V406.849Z" fill="black"/>
</g>
</g>
<mask id="mask42_117_749" style="mask-type:luminance" maskUnits="userSpaceOnUse" x="1427" y="239" width="78" height="99">
<path d="M1427.12 239.734H1504.67V337.667H1427.12V239.734Z" fill="white"/>
</mask>
<g mask="url(#mask42_117_749)">
<mask id="mask43_117_749" style="mask-type:luminance" maskUnits="userSpaceOnUse" x="1427" y="239" width="78" height="99">
<path d="M1473.6 337.547C1464.04 337.547 1455.79 335.51 1448.81 331.443C1441.84 327.375 1436.48 321.63 1432.73 314.203C1428.99 306.776 1427.12 298.031 1427.12 287.964C1427.12 280.484 1428.19 273.76 1430.32 267.818C1432.45 261.87 1435.52 256.802 1439.52 252.615C1443.52 248.427 1448.4 245.229 1454.15 243.031C1459.9 240.828 1466.38 239.734 1473.6 239.734C1478.12 239.734 1482.9 240.443 1487.93 241.87C1492.97 243.297 1497.61 245.615 1501.88 248.844C1503.3 249.88 1504.2 251.068 1504.59 252.427C1504.97 253.792 1505 255.177 1504.68 256.589C1504.36 258.005 1503.72 259.203 1502.75 260.177C1501.78 261.151 1500.55 261.698 1499.07 261.818C1497.59 261.938 1496 261.495 1494.32 260.458C1491.23 258.135 1487.96 256.458 1484.55 255.417C1481.14 254.375 1477.87 253.87 1474.76 253.87C1469.99 253.87 1465.75 254.641 1462.07 256.188C1458.39 257.734 1455.29 259.964 1452.78 262.87C1450.26 265.776 1448.35 269.323 1447.05 273.521C1445.76 277.724 1445.12 282.589 1445.12 288.151C1445.12 299.125 1447.71 307.75 1452.87 314.005C1458.03 320.255 1465.32 323.391 1474.75 323.391C1477.84 323.391 1481.07 322.911 1484.43 321.938C1487.79 320.964 1491.08 319.323 1494.31 316.99C1495.99 315.964 1497.54 315.536 1498.96 315.734C1500.39 315.938 1501.57 316.51 1502.55 317.484C1503.52 318.458 1504.12 319.615 1504.39 320.964C1504.66 322.307 1504.55 323.708 1504.09 325.125C1503.64 326.536 1502.72 327.734 1501.31 328.641C1497.17 331.75 1492.66 334.005 1487.75 335.417C1482.84 336.828 1478.14 337.547 1473.61 337.547" fill="white"/>
</mask>
<g mask="url(#mask43_117_749)">
<path d="M1427.12 239.734H1504.45V337.068H1427.12V239.734Z" fill="#034EA2"/>
</g>
</g>
<mask id="mask44_117_749" style="mask-type:luminance" maskUnits="userSpaceOnUse" x="1479" y="429" width="43" height="55">
<path d="M1479.69 429.318H1521.03V483H1479.69V429.318Z" fill="white"/>
</mask>
<g mask="url(#mask44_117_749)">
<mask id="mask45_117_749" style="mask-type:luminance" maskUnits="userSpaceOnUse" x="1479" y="429" width="42" height="54">
<path d="M1503.97 482.771C1498.93 482.771 1494.6 481.651 1490.99 479.412C1487.37 477.172 1484.57 474.026 1482.63 469.932C1480.68 465.839 1479.69 461.12 1479.69 455.719C1479.69 451.599 1480.24 447.932 1481.35 444.693C1482.45 441.453 1484.04 438.719 1486.14 436.453C1488.23 434.182 1490.79 432.427 1493.8 431.182C1496.81 429.943 1500.21 429.318 1503.97 429.318C1506.6 429.318 1509.3 429.761 1512.07 430.651C1514.84 431.547 1517.36 433.011 1519.63 435.078C1520.12 435.505 1520.44 436 1520.59 436.573C1520.73 437.146 1520.69 437.693 1520.48 438.224C1520.27 438.761 1519.95 439.182 1519.52 439.505C1519.09 439.823 1518.57 440 1517.97 440.037C1517.37 440.078 1516.75 439.813 1516.11 439.24C1514.12 437.583 1512.12 436.464 1510.09 435.865C1508.07 435.266 1506.11 434.958 1504.19 434.958C1501.28 434.958 1498.72 435.427 1496.52 436.344C1494.32 437.266 1492.45 438.625 1490.93 440.386C1489.42 442.146 1488.25 444.344 1487.48 446.932C1486.71 449.516 1486.31 452.49 1486.31 455.823C1486.31 462.505 1487.85 467.729 1490.93 471.531C1494.02 475.333 1498.44 477.224 1504.19 477.224C1506.11 477.224 1508.07 476.917 1510.09 476.318C1512.12 475.719 1514.12 474.599 1516.11 472.958C1516.75 472.396 1517.36 472.13 1517.97 472.156C1518.59 472.182 1519.09 472.37 1519.52 472.693C1519.95 473.011 1520.25 473.438 1520.43 473.969C1520.6 474.505 1520.61 475.052 1520.48 475.625C1520.35 476.198 1520.02 476.693 1519.52 477.12C1517.32 479.172 1514.84 480.625 1512.07 481.479C1509.3 482.333 1506.6 482.755 1503.97 482.755" fill="white"/>
</mask>
<g mask="url(#mask45_117_749)">
<path d="M1479.69 429.318H1521.03V482.651H1479.69V429.318Z" fill="black"/>
</g>
</g>
<mask id="mask46_117_749" style="mask-type:luminance" maskUnits="userSpaceOnUse" x="1553" y="239" width="93" height="99">
<path d="M1553.99 239.734H1645.99V337.667H1553.99V239.734Z" fill="white"/>
</mask>
<g mask="url(#mask46_117_749)">
<mask id="mask47_117_749" style="mask-type:luminance" maskUnits="userSpaceOnUse" x="1553" y="239" width="93" height="99">
<path d="M1599.69 323.604C1605.37 323.604 1610.31 322.245 1614.5 319.536C1618.71 316.828 1621.93 312.88 1624.19 307.724C1626.44 302.563 1627.57 296.161 1627.57 288.547C1627.57 277.188 1625.05 268.536 1620.02 262.604C1614.97 256.672 1608.2 253.698 1599.68 253.698C1594.12 253.698 1589.25 255.016 1585.05 257.672C1580.85 260.323 1577.6 264.229 1575.27 269.391C1572.93 274.547 1571.79 280.948 1571.79 288.563C1571.79 299.922 1574.33 308.615 1579.44 314.615C1584.55 320.615 1591.29 323.63 1599.68 323.63M1599.68 337.578C1590.39 337.578 1582.31 335.578 1575.47 331.578C1568.62 327.578 1563.35 321.854 1559.6 314.495C1555.85 307.135 1553.99 298.495 1553.99 288.547C1553.99 281.068 1555.05 274.307 1557.19 268.307C1559.32 262.307 1562.39 257.177 1566.39 252.911C1570.39 248.641 1575.2 245.391 1580.81 243.125C1586.43 240.854 1592.72 239.734 1599.69 239.734C1608.99 239.734 1617.05 241.734 1623.91 245.734C1630.76 249.734 1636.04 255.391 1639.79 262.682C1643.53 269.974 1645.4 278.604 1645.4 288.536C1645.4 296.031 1644.33 302.802 1642.2 308.87C1640.07 314.938 1637 320.094 1633 324.365C1629 328.63 1624.19 331.88 1618.57 334.151C1612.96 336.417 1606.67 337.536 1599.69 337.536" fill="white"/>
</mask>
<g mask="url(#mask47_117_749)">
<path d="M1553.99 239.734H1645.99V337.068H1553.99V239.734Z" fill="#034EA2"/>
</g>
</g>
<mask id="mask48_117_749" style="mask-type:luminance" maskUnits="userSpaceOnUse" x="1574" y="429" width="43" height="54">
<path d="M1574.14 429.531H1616.67V482.865H1574.14V429.531Z" fill="white"/>
</mask>
<g mask="url(#mask48_117_749)">
<mask id="mask49_117_749" style="mask-type:luminance" maskUnits="userSpaceOnUse" x="1574" y="429" width="43" height="54">
<path d="M1592.55 482.771C1588.43 482.771 1585.01 482.021 1582.27 480.531C1579.54 479.036 1577.5 476.807 1576.15 473.823C1574.81 470.839 1574.14 467.156 1574.14 462.745V432.943C1574.14 431.797 1574.42 430.958 1574.99 430.385C1575.57 429.813 1576.38 429.531 1577.43 429.531C1578.43 429.531 1579.21 429.813 1579.78 430.385C1580.35 430.958 1580.63 431.813 1580.63 432.943V462.438C1580.63 467.411 1581.66 471.115 1583.72 473.568C1585.79 476.021 1589.02 477.25 1593.42 477.25C1598.24 477.25 1602.15 475.635 1605.13 472.411C1608.1 469.182 1609.59 464.943 1609.59 459.688V432.943C1609.59 431.813 1609.87 430.958 1610.45 430.385C1611.02 429.813 1611.83 429.531 1612.9 429.531C1613.89 429.531 1614.67 429.813 1615.24 430.385C1615.82 430.958 1616.1 431.813 1616.1 432.943V479.25C1616.1 481.448 1615.07 482.557 1613.01 482.557C1612.01 482.557 1611.23 482.276 1610.66 481.703C1610.08 481.13 1609.81 480.318 1609.81 479.25V468.719L1611.08 469.464C1609.74 473.797 1607.39 477.089 1604.06 479.37C1600.72 481.651 1596.89 482.771 1592.57 482.771" fill="white"/>
</mask>
<g mask="url(#mask49_117_749)">
<path d="M1574.14 429.531H1615.47V482.865H1574.14V429.531Z" fill="black"/>
</g>
</g>
<mask id="mask50_117_749" style="mask-type:luminance" maskUnits="userSpaceOnUse" x="1673" y="429" width="42" height="55">
<path d="M1673.58 429.318H1714.92V483H1673.58V429.318Z" fill="white"/>
</mask>
<g mask="url(#mask50_117_749)">
<mask id="mask51_117_749" style="mask-type:luminance" maskUnits="userSpaceOnUse" x="1673" y="429" width="42" height="54">
<path d="M1691.8 482.771C1688.32 482.771 1685.21 482.089 1682.48 480.745C1679.74 479.396 1677.57 477.542 1675.98 475.208C1674.4 472.875 1673.58 470.24 1673.58 467.333C1673.58 463.49 1674.54 460.479 1676.46 458.276C1678.39 456.078 1681.61 454.531 1686.16 453.651C1690.7 452.771 1696.94 452.318 1704.89 452.318H1709.46V457.104H1704.99C1698.61 457.104 1693.62 457.37 1690.04 457.906C1686.45 458.438 1683.94 459.412 1682.53 460.839C1681.11 462.266 1680.4 464.24 1680.4 466.797C1680.4 470 1681.49 472.583 1683.7 474.573C1685.92 476.557 1688.87 477.557 1692.65 477.557C1695.7 477.557 1698.39 476.823 1700.69 475.37C1702.99 473.917 1704.82 471.906 1706.17 469.36C1707.52 466.813 1708.2 463.891 1708.2 460.625V448.49C1708.2 443.729 1707.23 440.276 1705.32 438.104C1703.4 435.932 1700.34 434.849 1696.16 434.849C1693.46 434.849 1690.85 435.214 1688.33 435.917C1685.81 436.625 1683.13 437.771 1680.29 439.333C1679.5 439.761 1678.81 439.906 1678.21 439.761C1677.61 439.61 1677.15 439.333 1676.82 438.906C1676.5 438.479 1676.29 437.958 1676.18 437.36C1676.08 436.761 1676.17 436.172 1676.45 435.599C1676.73 435.026 1677.24 434.573 1677.94 434.214C1680.93 432.583 1683.97 431.36 1687.05 430.547C1690.13 429.729 1693.15 429.318 1696.05 429.318C1700.24 429.318 1703.7 430.026 1706.44 431.453C1709.17 432.88 1711.2 435 1712.5 437.839C1713.81 440.677 1714.48 444.333 1714.48 448.797V479.25C1714.48 480.318 1714.22 481.13 1713.73 481.703C1713.23 482.276 1712.49 482.557 1711.49 482.557C1710.49 482.557 1709.72 482.276 1709.15 481.703C1708.57 481.13 1708.29 480.318 1708.29 479.25V469.464H1709.36C1708.72 472.24 1707.58 474.61 1705.94 476.599C1704.3 478.583 1702.29 480.12 1699.87 481.172C1697.46 482.224 1694.77 482.771 1691.78 482.771" fill="white"/>
</mask>
<g mask="url(#mask51_117_749)">
<path d="M1673.58 429.318H1714.92V482.651H1673.58V429.318Z" fill="black"/>
</g>
</g>
<mask id="mask52_117_749" style="mask-type:luminance" maskUnits="userSpaceOnUse" x="1706" y="197" width="45" height="141">
<path d="M1706.81 197.901H1750.81V337.667H1706.81V197.901Z" fill="white"/>
</mask>
<g mask="url(#mask52_117_749)">
<mask id="mask53_117_749" style="mask-type:luminance" maskUnits="userSpaceOnUse" x="1706" y="197" width="45" height="141">
<path d="M1736.45 337.552C1726.77 337.552 1719.41 334.687 1714.36 328.937C1709.33 323.193 1706.81 314.885 1706.81 304.031V206.807C1706.81 203.833 1707.58 201.604 1709.13 200.125C1710.67 198.646 1712.81 197.901 1715.53 197.901C1718.36 197.901 1720.57 198.646 1722.11 200.125C1723.66 201.604 1724.43 203.833 1724.43 206.807V302.687C1724.43 309.406 1725.82 314.406 1728.59 317.698C1731.36 320.995 1735.34 322.63 1740.5 322.63C1741.66 322.63 1742.7 322.604 1743.59 322.542C1744.48 322.474 1745.39 322.38 1746.3 322.245C1747.71 322.125 1748.76 322.51 1749.39 323.406C1750.03 324.297 1750.36 326.114 1750.36 328.833C1750.36 331.286 1749.82 333.193 1748.72 334.552C1747.63 335.911 1745.84 336.781 1743.39 337.167C1742.23 337.286 1741.07 337.39 1739.91 337.458C1738.76 337.526 1737.59 337.552 1736.43 337.552" fill="white"/>
</mask>
<g mask="url(#mask53_117_749)">
<path d="M1706.81 197.901H1750.81V337.901H1706.81V197.901Z" fill="#034EA2"/>
</g>
</g>
<mask id="mask54_117_749" style="mask-type:luminance" maskUnits="userSpaceOnUse" x="1770" y="406" width="49" height="77">
<path d="M1770.79 406.213H1818.79V483H1770.79V406.213Z" fill="white"/>
</mask>
<g mask="url(#mask54_117_749)">
<mask id="mask55_117_749" style="mask-type:luminance" maskUnits="userSpaceOnUse" x="1770" y="406" width="49" height="77">
<path d="M1794.54 477.333C1798.08 477.333 1801.15 476.505 1803.75 474.828C1806.35 473.146 1808.32 470.734 1809.71 467.531C1811.1 464.333 1811.79 460.505 1811.79 456.042C1811.79 449.292 1810.25 444.078 1807.17 440.385C1804.08 436.693 1799.87 434.854 1794.55 434.854C1791.07 434.854 1788.03 435.693 1785.44 437.359C1782.86 439.026 1780.87 441.437 1779.48 444.599C1778.1 447.76 1777.41 451.573 1777.41 456.052C1777.41 462.864 1778.96 468.12 1782.08 471.812C1785.2 475.505 1789.36 477.344 1794.54 477.344M1793.68 482.771C1789.07 482.771 1785.05 481.693 1781.6 479.531C1778.17 477.375 1775.5 474.281 1773.62 470.265C1771.74 466.255 1770.79 461.505 1770.79 456.042C1770.79 450.573 1771.71 445.854 1773.56 441.88C1775.42 437.906 1778.05 434.812 1781.5 432.614C1784.95 430.411 1789.01 429.307 1793.68 429.307C1798.51 429.307 1802.63 430.547 1806.03 433.042C1809.43 435.531 1811.71 438.864 1812.84 443.052H1811.67V409.521C1811.67 408.385 1811.95 407.547 1812.53 407.01C1813.1 406.479 1813.87 406.213 1814.87 406.213C1815.94 406.213 1816.75 406.479 1817.32 407.01C1817.9 407.547 1818.18 408.385 1818.18 409.521V479.255C1818.18 480.318 1817.9 481.13 1817.32 481.708C1816.75 482.281 1815.98 482.557 1814.98 482.557C1813.91 482.557 1813.1 482.281 1812.53 481.708C1811.95 481.13 1811.67 480.318 1811.67 479.255V468.281L1812.84 469.026C1811.71 473.213 1809.43 476.547 1806.03 479.042C1802.63 481.531 1798.51 482.771 1793.68 482.771Z" fill="white"/>
</mask>
<g mask="url(#mask55_117_749)">
<path d="M1770.79 406.213H1818.79V482.213H1770.79V406.213Z" fill="black"/>
</g>
</g>
<mask id="mask56_117_749" style="mask-type:luminance" maskUnits="userSpaceOnUse" x="1797" y="239" width="93" height="99">
<path d="M1797.26 239.734H1889.26V337.667H1797.26V239.734Z" fill="white"/>
</mask>
<g mask="url(#mask56_117_749)">
<mask id="mask57_117_749" style="mask-type:luminance" maskUnits="userSpaceOnUse" x="1797" y="239" width="92" height="99">
<path d="M1842.97 323.604C1848.65 323.604 1853.58 322.245 1857.78 319.536C1861.98 316.828 1865.21 312.88 1867.46 307.724C1869.71 302.563 1870.85 296.161 1870.85 288.547C1870.85 277.188 1868.33 268.536 1863.3 262.604C1858.28 256.672 1851.49 253.698 1842.97 253.698C1837.41 253.698 1832.54 255.016 1828.34 257.672C1824.14 260.323 1820.89 264.229 1818.55 269.391C1816.22 274.547 1815.07 280.948 1815.07 288.563C1815.07 299.922 1817.62 308.615 1822.73 314.615C1827.83 320.615 1834.57 323.63 1842.97 323.63M1842.97 337.578C1833.67 337.578 1825.59 335.578 1818.76 331.578C1811.92 327.578 1806.62 321.854 1802.88 314.495C1799.13 307.135 1797.26 298.495 1797.26 288.547C1797.26 281.068 1798.33 274.307 1800.46 268.307C1802.59 262.307 1805.66 257.177 1809.66 252.911C1813.66 248.641 1818.47 245.391 1824.09 243.125C1829.7 240.854 1836 239.734 1842.97 239.734C1852.28 239.734 1860.33 241.734 1867.18 245.734C1874.04 249.734 1879.31 255.391 1883.06 262.682C1886.81 269.974 1888.67 278.604 1888.67 288.536C1888.67 296.031 1887.61 302.802 1885.47 308.87C1883.34 314.938 1880.28 320.094 1876.28 324.365C1872.28 328.63 1867.46 331.88 1861.85 334.151C1856.23 336.417 1849.94 337.536 1842.97 337.536" fill="white"/>
</mask>
<g mask="url(#mask57_117_749)">
<path d="M1797.26 239.734H1889.26V337.068H1797.26V239.734Z" fill="#034EA2"/>
</g>
</g>
<mask id="mask58_117_749" style="mask-type:luminance" maskUnits="userSpaceOnUse" x="1874" y="429" width="49" height="55">
<path d="M1874.6 429.318H1922.6V483H1874.6V429.318Z" fill="white"/>
</mask>
<g mask="url(#mask58_117_749)">
<mask id="mask59_117_749" style="mask-type:luminance" maskUnits="userSpaceOnUse" x="1874" y="429" width="49" height="54">
<path d="M1898.35 477.344C1901.9 477.344 1904.96 476.516 1907.56 474.839C1910.16 473.156 1912.15 470.745 1913.52 467.542C1914.9 464.344 1915.6 460.516 1915.6 456.052C1915.6 449.302 1914.06 444.089 1910.97 440.396C1907.9 436.703 1903.67 434.849 1898.35 434.849C1894.87 434.849 1891.83 435.693 1889.24 437.36C1886.66 439.026 1884.67 441.438 1883.28 444.599C1881.9 447.755 1881.2 451.568 1881.2 456.052C1881.2 462.865 1882.76 468.115 1885.88 471.813C1889 475.505 1893.16 477.344 1898.33 477.344M1898.33 482.771C1893.51 482.771 1889.32 481.677 1885.78 479.474C1882.23 477.276 1879.48 474.182 1877.54 470.208C1875.59 466.235 1874.6 461.505 1874.6 456.037C1874.6 451.995 1875.15 448.328 1876.26 445.078C1877.36 441.823 1878.95 438.985 1881.04 436.61C1883.14 434.235 1885.66 432.422 1888.6 431.182C1891.55 429.943 1894.8 429.318 1898.35 429.318C1903.24 429.318 1907.47 430.422 1911.02 432.625C1914.56 434.823 1917.32 437.932 1919.27 441.943C1921.21 445.958 1922.2 450.651 1922.2 456.037C1922.2 460.156 1921.66 463.849 1920.55 467.104C1919.44 470.354 1917.85 473.172 1915.76 475.516C1913.67 477.865 1911.16 479.651 1908.26 480.891C1905.35 482.13 1902.04 482.755 1898.35 482.755" fill="white"/>
</mask>
<g mask="url(#mask59_117_749)">
<path d="M1874.6 429.318H1922.6V482.651H1874.6V429.318Z" fill="black"/>
</g>
</g>
<mask id="mask60_117_749" style="mask-type:luminance" maskUnits="userSpaceOnUse" x="517" y="376" width="1489" height="4">
<path d="M517.183 376.38H2005.69V379.287H517.183V376.38Z" fill="white"/>
</mask>
<g mask="url(#mask60_117_749)">
<path d="M517.183 376.38H2005.18V379.047H517.183V376.38Z" fill="#FFDD00"/>
</g>
<mask id="mask61_117_749" style="mask-type:luminance" maskUnits="userSpaceOnUse" x="1950" y="239" width="56" height="99">
<path d="M1950.08 239.412H2006V337.667H1950.08V239.412Z" fill="white"/>
</mask>
<g mask="url(#mask61_117_749)">
<mask id="mask62_117_749" style="mask-type:luminance" maskUnits="userSpaceOnUse" x="1950" y="239" width="56" height="99">
<path d="M1959.18 337.162C1956.21 337.162 1953.96 336.386 1952.41 334.839C1950.86 333.292 1950.08 331.026 1950.08 328.052V249.026C1950.08 246.068 1950.85 243.839 1952.4 242.349C1953.94 240.854 1956.08 240.12 1958.8 240.12C1961.52 240.12 1963.61 240.87 1965.09 242.349C1966.57 243.828 1967.32 246.068 1967.32 249.026V263.948H1965.39C1967.45 256.203 1971.32 250.333 1977.01 246.323C1982.7 242.307 1989.85 240.052 1998.51 239.547C2000.57 239.412 2002.25 239.906 2003.55 241C2004.84 242.094 2005.55 243.932 2005.68 246.521C2005.81 248.974 2005.22 250.948 2003.93 252.427C2002.64 253.906 2000.64 254.787 1997.93 255.042L1994.45 255.24C1985.93 256.146 1979.37 258.922 1974.8 263.573C1970.22 268.229 1967.92 274.615 1967.92 282.745V328.052C1967.92 331.026 1967.17 333.281 1965.69 334.839C1964.21 336.401 1962.04 337.162 1959.2 337.162" fill="white"/>
</mask>
<g mask="url(#mask62_117_749)">
<path d="M1950.08 239.412H2006.08V336.745H1950.08V239.412Z" fill="#034EA2"/>
</g>
</g>
<mask id="mask63_117_749" style="mask-type:luminance" maskUnits="userSpaceOnUse" x="1978" y="429" width="28" height="54">
<path d="M1978.62 429.141H2006V483H1978.62V429.141Z" fill="white"/>
</mask>
<g mask="url(#mask63_117_749)">
<mask id="mask64_117_749" style="mask-type:luminance" maskUnits="userSpaceOnUse" x="1978" y="429" width="28" height="54">
<path d="M1981.93 482.552C1980.86 482.552 1980.05 482.276 1979.48 481.703C1978.91 481.125 1978.62 480.312 1978.62 479.245V432.943C1978.62 431.807 1978.91 430.953 1979.48 430.38C1980.05 429.807 1980.86 429.526 1981.93 429.526C1982.92 429.526 1983.69 429.807 1984.22 430.38C1984.76 430.953 1985.03 431.807 1985.03 432.943V442.422H1983.96C1985.24 438.234 1987.52 435.005 1990.83 432.729C1994.13 430.448 1998.08 429.286 2002.69 429.208C2003.55 429.14 2004.25 429.312 2004.83 429.739C2005.4 430.166 2005.68 430.849 2005.68 431.765C2005.74 432.765 2005.53 433.526 2005.04 434.062C2004.55 434.594 2003.72 434.927 2002.58 435.073L2001.09 435.182C1996.05 435.672 1992.15 437.338 1989.38 440.182C1986.6 443.021 1985.22 446.849 1985.22 451.672V479.245C1985.22 480.312 1984.96 481.125 1984.43 481.703C1983.89 482.276 1983.05 482.552 1981.92 482.552" fill="white"/>
</mask>
<g mask="url(#mask64_117_749)">
<path d="M1978.62 429.141H2005.29V482.474H1978.62V429.141Z" fill="black"/>
</g>
</g>
</svg>
