<svg width="1201" height="2009" viewBox="0 0 1201 2009" fill="none" xmlns="http://www.w3.org/2000/svg">
<mask id="mask0_117_861" style="mask-type:luminance" maskUnits="userSpaceOnUse" x="212" y="1053" width="138" height="88">
<path d="M212.333 1053.67H349.593V1140.33H212.333V1053.67Z" fill="white"/>
</mask>
<g mask="url(#mask0_117_861)">
<mask id="mask1_117_861" style="mask-type:luminance" maskUnits="userSpaceOnUse" x="213" y="1054" width="136" height="87">
<path d="M348.807 1140.26L213.244 1054.74L213.713 1054.47L348.807 1140.26Z" fill="white"/>
</mask>
<g mask="url(#mask1_117_861)">
<path d="M-19.1357 -19.0366H1220.42V2028.57H-19.1357V-19.0366Z" fill="black"/>
<path d="M-19.1357 -19.0366H1220.42V2028.57H-19.1357V-19.0366Z" fill="black"/>
</g>
</g>
<mask id="mask2_117_861" style="mask-type:luminance" maskUnits="userSpaceOnUse" x="91" y="785" width="1031" height="628">
<path d="M91 785.667H1121.67V1412.33H91V785.667Z" fill="white"/>
</mask>
<g mask="url(#mask2_117_861)">
<mask id="mask3_117_861" style="mask-type:luminance" maskUnits="userSpaceOnUse" x="91" y="786" width="1030" height="627">
<path d="M1071.94 1001.95L698.786 786.474V878.89L920.021 1006.61L1000.91 1053.29L1001.03 1053.37L605.896 1303.56L348.807 1140.25L213.245 1054.74L213.714 1054.47L297.344 1006.18L513.047 881.64V789.224L137.573 1006.03L137.536 1006.06L91.0156 1087.42L122.396 1107.19L605.974 1412.25L1091.87 1105.78L1120.94 1087.46L1071.94 1001.95Z" fill="white"/>
</mask>
<g mask="url(#mask3_117_861)">
<path d="M-19.1357 -19.0371H1220.42V2028.57H-19.1357V-19.0371Z" fill="#034EA2"/>
</g>
</g>
<mask id="mask4_117_861" style="mask-type:luminance" maskUnits="userSpaceOnUse" x="605" y="0" width="596" height="1305">
<path d="M605.667 0.578125H1200.33V1304.33H605.667V0.578125Z" fill="white"/>
</mask>
<g mask="url(#mask4_117_861)">
<mask id="mask5_117_861" style="mask-type:luminance" maskUnits="userSpaceOnUse" x="605" y="0" width="595" height="1304">
<path d="M605.938 1303.59V0.578125L1199.51 1037.84L1168.24 1057.53L1120.86 1087.46L1071.94 1001.95L698.786 349.849V1243.9" fill="white"/>
</mask>
<g mask="url(#mask5_117_861)">
<path d="M-19.1357 -19.0366H1220.42V2028.57H-19.1357V-19.0366Z" fill="#E0BB05"/>
</g>
</g>
<mask id="mask6_117_861" style="mask-type:luminance" maskUnits="userSpaceOnUse" x="12" y="0" width="595" height="1305">
<path d="M12.333 0.578125H607V1304.33H12.333V0.578125Z" fill="white"/>
</mask>
<g mask="url(#mask6_117_861)">
<mask id="mask7_117_861" style="mask-type:luminance" maskUnits="userSpaceOnUse" x="12" y="0" width="594" height="1304">
<path d="M513.089 1243.9V349.849L137.573 1006.03L137.536 1006.06L91.0156 1087.42L45.9427 1058.98L12.4062 1037.84L605.938 0.578125V1303.59" fill="white"/>
</mask>
<g mask="url(#mask7_117_861)">
<path d="M-19.1357 -19.0366H1220.42V2028.57H-19.1357V-19.0366Z" fill="#FFDD00"/>
</g>
</g>
<mask id="mask8_117_861" style="mask-type:luminance" maskUnits="userSpaceOnUse" x="0" y="1126" width="607" height="883">
<path d="M0.479492 1126.37H607V2008.33H0.479492V1126.37Z" fill="white"/>
</mask>
<g mask="url(#mask8_117_861)">
<mask id="mask9_117_861" style="mask-type:luminance" maskUnits="userSpaceOnUse" x="0" y="1126" width="606" height="882">
<path d="M524.662 1745.79L292.125 1407.63L524.662 1554.68V1745.79ZM0.479492 1126.92L605.938 2007.43V1509.96L0.479492 1126.92Z" fill="white"/>
</mask>
<g mask="url(#mask9_117_861)">
<path d="M-19.1348 -19.0366H1220.42V2028.57H-19.1348V-19.0366Z" fill="#C41A26"/>
</g>
</g>
<mask id="mask10_117_861" style="mask-type:luminance" maskUnits="userSpaceOnUse" x="605" y="1126" width="596" height="883">
<path d="M605.667 1126.37H1200.33V2008.33H605.667V1126.37Z" fill="white"/>
</mask>
<g mask="url(#mask10_117_861)">
<mask id="mask11_117_861" style="mask-type:luminance" maskUnits="userSpaceOnUse" x="605" y="1126" width="595" height="882">
<path d="M687.214 1554.25L910.609 1410.09L687.214 1741.44V1554.25ZM605.938 1509.96V2007.43L1199.51 1126.92L605.938 1509.96Z" fill="white"/>
</mask>
<g mask="url(#mask11_117_861)">
<path d="M-19.1357 -19.0366H1220.42V2028.57H-19.1357V-19.0366Z" fill="#ED1C24"/>
</g>
</g>
</svg>
