<svg width="923" height="227" viewBox="0 0 923 227" fill="none" xmlns="http://www.w3.org/2000/svg">
<mask id="mask0_123_2364" style="mask-type:luminance" maskUnits="userSpaceOnUse" x="0" y="30" width="148" height="183">
<path d="M0.807617 30.3179H147.365V68.9637H0.807617V30.3179ZM0.807617 68.9637H38.9587V102.745H0.807617V68.9637ZM0.807617 102.745H124.271V140.646H0.807617V102.745ZM0.807617 140.646H38.9587V174.427H0.807617V140.646ZM0.807617 174.427H147.365V212.604H0.807617V174.427Z" fill="white"/>
</mask>
<g mask="url(#mask0_123_2364)">
<path d="M-11.6768 17.8335H355.344V237.542H-11.6768V17.8335Z" fill="#121920"/>
</g>
<mask id="mask1_123_2364" style="mask-type:luminance" maskUnits="userSpaceOnUse" x="159" y="30" width="184" height="197">
<path d="M159.667 30.3179H342.86V226.667H159.667V30.3179Z" fill="white"/>
</mask>
<g mask="url(#mask1_123_2364)">
<mask id="mask2_123_2364" style="mask-type:luminance" maskUnits="userSpaceOnUse" x="159" y="30" width="184" height="196">
<path d="M251.901 172.255C279.37 172.255 302.688 149.162 302.688 121.224C302.688 92.5366 279.37 69.6877 251.901 69.6877C223.214 69.6877 199.896 92.5366 199.896 121.224C199.896 149.162 223.24 172.255 251.901 172.255ZM338.917 186.589H339.891V225.709H338.917C317.766 225.709 297.594 219.146 282.286 206.511C273.052 210.406 262.365 212.578 251.901 212.578C200.87 212.578 159.797 171.255 159.797 121.198C159.776 70.6616 200.844 30.3179 251.901 30.3179C301.74 30.3179 342.807 70.6616 342.807 121.198C342.807 144.542 333.099 166.412 318.74 181.719C324.583 184.641 332.349 186.589 338.917 186.589Z" fill="white"/>
</mask>
<g mask="url(#mask2_123_2364)">
<path d="M-11.6768 17.8335H355.344V237.542H-11.6768V17.8335Z" fill="#121920"/>
</g>
</g>
<mask id="mask3_123_2364" style="mask-type:luminance" maskUnits="userSpaceOnUse" x="369" y="17" width="148" height="196">
<path d="M369.401 17.9375H516.709V212.682H369.401V17.9375Z" fill="white"/>
</mask>
<g mask="url(#mask3_123_2364)">
<mask id="mask4_123_2364" style="mask-type:luminance" maskUnits="userSpaceOnUse" x="369" y="17" width="148" height="196">
<path d="M442.302 212.583C401.959 212.583 369.401 180.026 369.401 138.703V37.7344H407.797V138.703C407.797 157.901 423.104 174.182 442.302 174.182C461.256 174.182 477.782 157.901 477.782 138.703V17.9375H516.183V138.703C516.183 180.026 482.401 212.583 442.302 212.583Z" fill="white"/>
</mask>
<g mask="url(#mask4_123_2364)">
<path d="M369.401 17.9375H516.709V212.682H369.401V17.9375Z" fill="#121920"/>
</g>
</g>
<mask id="mask5_123_2364" style="mask-type:luminance" maskUnits="userSpaceOnUse" x="548" y="0" width="39" height="213">
<path d="M548.151 0.671875H586.334V212.594H548.151V0.671875Z" fill="white"/>
</mask>
<g mask="url(#mask5_123_2364)">
<path d="M548.151 0.671875H585.604V212.896H548.151V0.671875Z" fill="#121920"/>
</g>
<mask id="mask6_123_2364" style="mask-type:luminance" maskUnits="userSpaceOnUse" x="613" y="30" width="149" height="183">
<path d="M613.521 30.3125H761.057V68.9635H613.521V30.3125ZM668.453 68.9635H706.849V212.599H668.453V68.9635Z" fill="white"/>
</mask>
<g mask="url(#mask6_123_2364)">
<path d="M601.041 17.8281H933.104V225.057H601.041V17.8281Z" fill="#121920"/>
</g>
<mask id="mask7_123_2364" style="mask-type:luminance" maskUnits="userSpaceOnUse" x="774" y="30" width="149" height="184">
<path d="M774.333 30.3125H922.333V213.333H774.333V30.3125Z" fill="white"/>
</mask>
<g mask="url(#mask7_123_2364)">
<mask id="mask8_123_2364" style="mask-type:luminance" maskUnits="userSpaceOnUse" x="774" y="30" width="148" height="183">
<path d="M867.239 125.839V212.599H828.593V125.839L774.635 30.3125H818.88L847.791 81.599L876.729 30.3125H921.192L867.239 125.839Z" fill="white"/>
</mask>
<g mask="url(#mask8_123_2364)">
<path d="M601.041 17.8281H933.104V225.057H601.041V17.8281Z" fill="#121920"/>
</g>
</g>
</svg>
