<svg width="276" height="171" viewBox="0 0 276 171" fill="none" xmlns="http://www.w3.org/2000/svg">
<path fill-rule="evenodd" clip-rule="evenodd" d="M46.1466 170.257H23.8694C23.1817 170.257 22.618 169.494 22.618 168.563V95.5646C23.5381 95.1403 24.4653 94.7308 25.393 94.3211L25.3938 94.3208L25.3939 94.3208L25.3955 94.32C26.2343 93.9496 27.0735 93.579 27.9085 93.197L31.991 91.5447C33.3477 90.9828 34.7106 90.4376 36.0921 89.9512C39.8362 88.556 43.6068 87.2515 47.398 86.0253V168.563C47.398 169.494 46.8342 170.257 46.1466 170.257ZM47.398 74.6266C42.8974 75.8245 38.4054 77.1313 33.9239 78.5699C32.4993 78.9976 31.0746 79.5007 29.65 80.0039L29.6493 80.0041L25.3748 81.5138C24.5276 81.8551 23.6788 82.1852 22.8294 82.5154L22.8293 82.5155L22.618 82.5976V1.69418C22.618 0.763212 23.1817 0 23.8694 0H46.1466C46.8342 0 47.398 0.763212 47.398 1.69418V74.6266ZM47.398 74.6266V86.0253C54.7288 83.6543 62.1363 81.5762 69.5761 79.7022C92.1631 74.0577 115.06 70.2668 138.037 67.8429C149.529 66.6603 161.045 65.8803 172.574 65.4694C184.097 65.0836 195.638 65.0248 207.174 65.5448C218.709 66.0481 230.238 67.0126 241.723 68.5977C253.209 70.1913 264.663 72.3803 276 75.4919C264.75 71.8351 253.345 69.0758 241.872 66.9287C230.399 64.79 218.863 63.2552 207.297 62.19C195.731 61.0997 184.14 60.5965 172.543 60.4287C160.946 60.2778 149.343 60.5042 137.746 61.1333C114.558 62.45 91.3888 65.1507 68.3495 69.7635C61.3497 71.1799 54.3635 72.7728 47.398 74.6266ZM22.618 82.5976C20.6992 83.3439 18.7785 84.096 16.869 84.986C11.2068 87.5021 5.57551 90.2699 0 94.4215L4.97461 106.046C9.44741 102.398 14.6574 99.4872 19.9046 96.8873C20.798 96.4218 21.7046 95.9859 22.618 95.5646V82.5976Z" fill="#20535C"/>
<path fill-rule="evenodd" clip-rule="evenodd" d="M93.2411 1.69418C93.2411 0.763212 92.6773 0 91.9897 0H69.7125C69.0248 0 68.4611 0.763212 68.4611 1.69418V69.7412L68.3495 69.7635C56.8268 72.0951 45.3413 74.9048 33.9239 78.5699C32.4993 78.9976 31.0746 79.5007 29.65 80.0039L29.6493 80.0041L25.3748 81.5138C24.5276 81.8551 23.6788 82.1852 22.8294 82.5154L22.8293 82.5155L22.8291 82.5155L22.8289 82.5156C20.8401 83.2889 18.8484 84.0633 16.869 84.986C11.2068 87.5021 5.57551 90.2699 0 94.4215L4.97461 106.046C9.44741 102.398 14.6574 99.4872 19.9046 96.8873C21.6983 95.9528 23.5448 95.1373 25.3937 94.3208L25.3937 94.3208L25.3938 94.3208L25.3939 94.3208L25.3955 94.32C26.2343 93.9496 27.0735 93.579 27.9085 93.197L31.991 91.5447C33.3477 90.9828 34.7106 90.4376 36.0921 89.9512C46.7141 85.9931 57.5504 82.7645 68.4611 79.9847V168.563C68.4611 169.494 69.0248 170.257 69.7125 170.257H91.9897C92.6773 170.257 93.2411 169.494 93.2411 168.563V74.4659C108.096 71.5866 123.05 69.4239 138.037 67.8429C149.529 66.6603 161.045 65.8803 172.574 65.4694C184.097 65.0836 195.638 65.0248 207.174 65.5448C218.709 66.0481 230.238 67.0126 241.723 68.5977C253.209 70.1913 264.663 72.3803 276 75.4919C264.75 71.8351 253.345 69.0758 241.872 66.9287C230.399 64.79 218.863 63.2552 207.297 62.19C195.731 61.0997 184.14 60.5965 172.543 60.4287C160.946 60.2778 149.343 60.5042 137.746 61.1333C122.894 61.9767 108.049 63.3879 93.2411 65.5056L93.2411 32.7887L93.2411 1.69418ZM93.2411 65.5056V74.4659C85.3217 76.0008 77.4302 77.7395 69.5761 79.7022C69.2044 79.7958 68.8327 79.89 68.4611 79.9847V69.7412C76.7061 68.0926 84.9678 66.6889 93.2411 65.5056Z" fill="#20535C"/>
<path d="M183.589 107.581H185.565V122.174H188.817V124.607H183.589V107.581Z" fill="#20535C"/>
<path d="M194.17 107.581H196.846L198.897 124.607H196.921L196.561 121.227V121.277H194.313L193.953 124.607H192.12L194.17 107.581ZM196.326 118.97L195.446 110.558H195.409L194.548 118.97H196.326Z" fill="#20535C"/>
<path d="M204.268 110.013H202.205V107.581H208.313V110.013H206.25V124.607H204.274V110.013H204.268Z" fill="#20535C"/>
<path d="M213.659 107.581H216.336L218.386 124.607H216.41L216.051 121.227V121.277H213.802L213.443 124.607H211.609L213.659 107.581ZM215.815 118.97L214.936 110.558H214.898L214.037 118.97H215.815Z" fill="#20535C"/>
<path d="M222.215 107.581H225.033L226.291 119.767H226.328L227.586 107.581H230.404V124.607H228.534V111.716H228.496L227.059 124.607H225.405L223.968 111.716H223.931V124.607H222.208V107.581H222.215Z" fill="#20535C"/>
<path d="M126.898 110.013H124.835V107.581H130.944V110.013H128.881V124.606H126.905V110.013H126.898Z" fill="#20535C"/>
<path d="M137.641 107.581H143.03V110.013H139.617V114.508H142.33V116.941H139.617V122.166H143.03V124.598H137.641V107.581Z" fill="#20535C"/>
<path d="M150.532 123.759C150.037 123.03 149.789 121.998 149.789 120.673V111.531C149.789 110.206 150.037 109.174 150.532 108.445C151.028 107.715 151.753 107.354 152.695 107.354C153.636 107.354 154.361 107.723 154.863 108.445C155.358 109.174 155.606 110.206 155.606 111.531V113.334H153.735V111.363C153.735 110.306 153.407 109.786 152.75 109.786C152.094 109.786 151.759 110.315 151.759 111.363V120.874C151.759 121.914 152.087 122.434 152.75 122.434C153.407 122.434 153.735 121.914 153.735 120.874V118.274H155.606V120.681C155.606 122.015 155.358 123.038 154.863 123.768C154.367 124.497 153.642 124.866 152.695 124.866C151.747 124.866 151.028 124.489 150.532 123.759Z" fill="#20535C"/>
<path d="M162.544 107.581H164.521V114.508H166.639V107.581H168.616V124.606H166.639V116.949H164.521V124.606H162.544V107.581Z" fill="#20535C"/>
<path d="M111.665 54.6585C110.333 52.7295 109.664 50.0037 109.664 46.4811V23.3329C109.664 19.8103 110.333 17.0845 111.665 15.1555C112.997 13.2265 114.917 12.262 117.426 12.262C119.935 12.262 121.856 13.2265 123.188 15.1555C124.52 17.0845 125.189 19.8103 125.189 23.3329V46.4811C125.189 50.0037 124.52 52.7295 123.188 54.6585C121.856 56.5875 119.935 57.552 117.426 57.552C114.917 57.552 112.997 56.5875 111.665 54.6585ZM120.078 46.9257V22.8967C120.078 20.0032 119.192 18.5606 117.426 18.5606C115.661 18.5606 114.775 20.0032 114.775 22.8967V46.9257C114.775 49.8192 115.661 51.2618 117.426 51.2618C119.192 51.2618 120.078 49.8192 120.078 46.9257Z" fill="#20535C"/>
<path d="M136.061 12.8911H143.631C146.264 12.8911 148.185 13.7214 149.393 15.3737C150.601 17.0343 151.208 19.5756 151.208 23.0143V25.7149C151.208 30.2859 150.093 33.1794 147.863 34.3955V34.5213C149.102 35.0246 149.975 36.0561 150.489 37.5994C151.003 39.151 151.257 41.231 151.257 43.831V51.5638C151.257 52.8219 151.288 53.8367 151.35 54.6167C151.412 55.3967 151.567 56.1599 151.815 56.9147H146.611C146.425 56.2018 146.301 55.5309 146.239 54.9019C146.177 54.2728 146.147 53.1406 146.147 51.5051V43.4535C146.147 41.4406 145.905 40.0316 145.428 39.2348C144.945 38.4381 144.121 38.0439 142.944 38.0439H141.178V56.9147H136.067V12.8911H136.061ZM143.03 31.762C144.053 31.762 144.821 31.4097 145.329 30.6884C145.843 29.9755 146.097 28.7846 146.097 27.1072V23.7104C146.097 22.1169 145.886 20.9679 145.471 20.2466C145.056 19.5337 144.393 19.173 143.495 19.173H141.172V31.7536H143.03V31.762Z" fill="#20535C"/>
<path d="M162.216 12.8911H167.327V56.9231H162.216V12.8911Z" fill="#20535C"/>
<path d="M177.549 50.7587L187.027 19.1814H178.013V12.8911H192.51V19.0556L183.031 50.6329H192.51V56.9231H177.549V50.7587Z" fill="#20535C"/>
<path d="M204.448 54.6588C203.116 52.7297 202.447 50.004 202.447 46.4814V23.3331C202.447 19.8106 203.116 17.0848 204.448 15.1558C205.78 13.2267 207.7 12.2622 210.209 12.2622C212.718 12.2622 214.639 13.2267 215.97 15.1558C217.302 17.0848 217.971 19.8106 217.971 23.3331V46.4814C217.971 50.004 217.302 52.7297 215.97 54.6588C214.639 56.5878 212.718 57.5523 210.209 57.5523C207.7 57.5523 205.78 56.5878 204.448 54.6588ZM212.861 46.9259V22.897C212.861 20.0034 211.975 18.5609 210.209 18.5609C208.444 18.5609 207.558 20.0034 207.558 22.897V46.9259C207.558 49.8194 208.444 51.262 210.209 51.262C211.975 51.262 212.861 49.8194 212.861 46.9259Z" fill="#20535C"/>
<path d="M228.844 12.8911H235.256L240.23 39.2432H240.323V12.8911H244.876V56.9231H239.623L233.49 24.7756H233.397V56.9231H228.844V12.8911Z" fill="#20535C"/>
<path d="M110.426 54.6585C109.094 52.7295 108.425 50.0037 108.425 46.4811V23.3329C108.425 19.8103 109.094 17.0845 110.426 15.1555C111.758 13.2265 113.679 12.262 116.188 12.262C118.697 12.262 120.617 13.2265 121.949 15.1555C123.281 17.0845 123.95 19.8103 123.95 23.3329V46.4811C123.95 50.0037 123.281 52.7295 121.949 54.6585C120.617 56.5875 118.697 57.552 116.188 57.552C113.679 57.552 111.758 56.5875 110.426 54.6585ZM118.839 46.9257V22.8967C118.839 20.0032 117.953 18.5606 116.188 18.5606C114.422 18.5606 113.536 20.0032 113.536 22.8967V46.9257C113.536 49.8192 114.422 51.2618 116.188 51.2618C117.953 51.2618 118.839 49.8192 118.839 46.9257Z" fill="#20535C"/>
<path d="M134.822 12.8911H142.393C145.025 12.8911 146.946 13.7214 148.154 15.3737C149.362 17.0343 149.969 19.5756 149.969 23.0143V25.7149C149.969 30.2859 148.854 33.1794 146.624 34.3955V34.5213C147.863 35.0246 148.736 36.0561 149.25 37.5994C149.765 39.151 150.019 41.231 150.019 43.831V51.5638C150.019 52.8219 150.05 53.8367 150.112 54.6167C150.173 55.3967 150.328 56.1599 150.576 56.9147H145.372C145.187 56.2018 145.063 55.5309 145.001 54.9019C144.939 54.2728 144.908 53.1406 144.908 51.5051V43.4535C144.908 41.4406 144.666 40.0316 144.189 39.2348C143.706 38.4381 142.882 38.0439 141.705 38.0439H139.939V56.9147H134.828V12.8911H134.822ZM141.792 31.762C142.814 31.762 143.582 31.4097 144.09 30.6884C144.604 29.9755 144.858 28.7846 144.858 27.1072V23.7104C144.858 22.1169 144.648 20.9679 144.232 20.2466C143.817 19.5337 143.155 19.173 142.256 19.173H139.933V31.7536H141.792V31.762Z" fill="#20535C"/>
<path d="M160.978 12.8911H166.088V56.9231H160.978V12.8911Z" fill="#20535C"/>
<path d="M176.31 50.7587L185.788 19.1814H176.775V12.8911H191.271V19.0556L181.793 50.6329H191.271V56.9231H176.31V50.7587Z" fill="#20535C"/>
<path d="M203.209 54.6588C201.877 52.7297 201.208 50.004 201.208 46.4814V23.3331C201.208 19.8106 201.877 17.0848 203.209 15.1558C204.541 13.2267 206.461 12.2622 208.97 12.2622C211.479 12.2622 213.4 13.2267 214.732 15.1558C216.064 17.0848 216.733 19.8106 216.733 23.3331V46.4814C216.733 50.004 216.064 52.7297 214.732 54.6588C213.4 56.5878 211.479 57.5523 208.97 57.5523C206.461 57.5523 204.541 56.5878 203.209 54.6588ZM211.622 46.9259V22.897C211.622 20.0034 210.736 18.5609 208.97 18.5609C207.205 18.5609 206.319 20.0034 206.319 22.897V46.9259C206.319 49.8194 207.205 51.262 208.97 51.262C210.736 51.262 211.622 49.8194 211.622 46.9259Z" fill="#20535C"/>
<path d="M227.605 12.8911H234.017L238.991 39.2432H239.084V12.8911H243.638V56.9231H238.384L232.251 24.7756H232.158V56.9231H227.605V12.8911Z" fill="#20535C"/>
<path fill-rule="evenodd" clip-rule="evenodd" d="M22.6177 110.751V105.187L25.4488 103.781C26.287 103.354 27.139 103.003 27.992 102.651C28.4125 102.477 28.8332 102.303 29.2525 102.121L33.0748 100.519C33.8656 100.196 34.6547 99.8622 35.4439 99.5278C37.202 98.7829 38.9613 98.0375 40.7442 97.4239L48.4818 94.7065C52.4349 93.2656 56.4281 92.1158 60.4222 90.9657C61.6358 90.6163 62.8495 90.2668 64.0623 89.9091C74.4947 87.0072 85.0138 84.793 95.5701 83.1407L99.5287 82.5117L103.493 81.9749L111.423 80.9098C111.64 80.8801 111.858 80.8503 112.075 80.8205C114.498 80.4889 116.925 80.1566 119.353 79.895L127.282 78.9472C128.276 78.8338 129.267 78.7098 130.259 78.5858C131.907 78.3796 133.556 78.1734 135.212 78.0162L143.148 77.2195L151.077 76.4311L159.013 75.7853L166.949 75.1814C168.709 75.0531 170.473 74.9544 172.235 74.8558C173.121 74.8062 174.006 74.7567 174.891 74.7034C176.307 74.6249 177.723 74.5416 179.138 74.4583C183.017 74.2302 186.894 74.0021 190.775 73.873C201.368 73.4285 211.962 73.2105 222.549 73.0763L238.433 73.0427L254.311 73.3279V74.3092L238.458 75.1479L222.611 76.1543C212.055 76.9259 201.498 77.7898 190.961 78.8801C187.091 79.2126 183.224 79.6444 179.359 80.0762C177.958 80.2327 176.558 80.3891 175.157 80.5408C174.222 80.648 173.288 80.7499 172.353 80.8518C170.655 81.0368 168.959 81.2218 167.265 81.4382L159.379 82.453L151.492 83.4343L143.619 84.5582L135.745 85.6904C134.101 85.916 132.463 86.1909 130.825 86.4657C129.844 86.6302 128.864 86.7946 127.883 86.9485C126.607 87.1672 125.331 87.38 124.055 87.5927C120.095 88.2527 116.138 88.9125 112.197 89.7497L104.373 91.3181L100.464 92.1149L96.5675 93.0039L65.4004 99.7974L57.6194 101.542C57.1638 101.645 56.7066 101.741 56.2493 101.837C55.407 102.014 54.5641 102.191 53.729 102.414L49.8571 103.395L42.0947 105.291C41.1069 105.507 40.1297 105.782 39.1551 106.056C38.8462 106.143 38.5377 106.229 38.2291 106.314L34.3634 107.371L26.6258 109.501L22.6177 110.751Z" fill="#20535C"/>
<path fill-rule="evenodd" clip-rule="evenodd" d="M19.9044 96.8873C18.3394 97.6628 16.7777 98.4658 15.2379 99.3079L11.8261 101.844C10.8402 102.591 9.87538 103.4 8.91426 104.207L8.91422 104.207L8.91176 104.209C8.7081 104.38 8.5046 104.551 8.30111 104.721C5.98395 106.588 3.77596 108.792 1.60514 110.959L1.53613 111.028L2.21141 112.915C12.7429 109.543 22.9895 106.583 33.3723 104.109C43.718 101.576 54.076 99.3279 64.4465 97.1389C74.8169 94.975 85.1626 92.5931 95.5268 89.9428C105.885 87.2924 116.305 84.7679 126.805 82.9983C137.3 81.1867 147.831 79.6519 158.394 78.419C168.95 77.0854 179.537 76.0286 190.137 75.2487C211.342 73.5796 232.616 73.0093 253.939 73.5964L254.057 71.4996C236.562 68.2811 218.932 66.3935 201.257 65.3277C191.693 65.0546 182.127 65.1496 172.574 65.4694C161.045 65.8804 149.529 66.6604 138.037 67.843C115.06 70.2669 92.1629 74.0578 69.5759 79.7023C58.2886 82.5455 47.0757 85.8584 36.0919 89.9513C34.7104 90.4377 33.3475 90.9829 31.9908 91.5448L27.9083 93.197C27.0728 93.5793 26.2331 93.9501 25.3939 94.3208L25.3937 94.3209C23.5447 95.1374 21.6982 95.9528 19.9044 96.8873Z" fill="#20535C"/>
</svg>
