<svg xmlns="http://www.w3.org/2000/svg" xmlns:xlink="http://www.w3.org/1999/xlink" width="500" zoomAndPan="magnify" viewBox="0 0 375 225" height="300" preserveAspectRatio="xMidYMid meet" version="1.0"><defs><clipPath id="427cc05575"><path d="M 4.953125 13.261719 L 45 13.261719 L 45 212 L 4.953125 212 Z M 4.953125 13.261719 " clip-rule="nonzero"/></clipPath><clipPath id="6a62f15ec5"><path d="M 77 13.261719 L 117 13.261719 L 117 212 L 77 212 Z M 77 13.261719 " clip-rule="nonzero"/></clipPath><clipPath id="7c14fb64b6"><path d="M 4.953125 98 L 370.203125 98 L 370.203125 143 L 4.953125 143 Z M 4.953125 98 " clip-rule="nonzero"/></clipPath><clipPath id="b4a7e144aa"><path d="M 4.953125 89 L 370 89 L 370 138 L 4.953125 138 Z M 4.953125 89 " clip-rule="nonzero"/></clipPath></defs><rect x="-37.5" width="450" fill="#ffffff" y="-22.5" height="270" fill-opacity="1"/><rect x="-37.5" width="450" fill="#ffffff" y="-22.5" height="270" fill-opacity="1"/><rect x="-37.5" width="450" fill="#ffffff" y="-22.5" height="270" fill-opacity="1"/><g clip-path="url(#427cc05575)"><path fill="#0f1537" d="M 44.019531 15.390625 C 44.019531 14.304688 43.128906 13.414062 42.046875 13.414062 L 6.925781 13.414062 C 5.84375 13.414062 4.953125 14.304688 4.953125 15.390625 L 4.953125 109.6875 L 5.289062 109.589844 C 6.628906 109.207031 7.964844 108.820312 9.300781 108.421875 L 16.039062 106.664062 C 18.285156 106.078125 20.53125 105.492188 22.777344 104.992188 C 29.84375 103.316406 36.925781 101.792969 44.019531 100.394531 Z M 44.019531 113.683594 C 38.042969 115.109375 32.097656 116.632812 26.195312 118.257812 C 24.019531 118.824219 21.871094 119.460938 19.730469 120.113281 L 13.296875 122.039062 C 11.976562 122.488281 10.652344 122.917969 9.332031 123.351562 C 7.867188 123.828125 6.40625 124.304688 4.953125 124.800781 L 4.953125 209.882812 C 4.953125 210.96875 5.84375 211.859375 6.925781 211.859375 L 42.046875 211.859375 C 43.128906 211.859375 44.019531 210.96875 44.019531 209.882812 Z M 44.019531 113.683594 " fill-opacity="1" fill-rule="evenodd"/></g><g clip-path="url(#6a62f15ec5)"><path fill="#0f1537" d="M 116.289062 15.390625 C 116.289062 14.304688 115.398438 13.414062 114.316406 13.414062 L 79.195312 13.414062 C 78.113281 13.414062 77.222656 14.304688 77.222656 15.390625 L 77.222656 94.703125 C 90.222656 92.78125 103.246094 91.144531 116.289062 89.765625 Z M 116.289062 100.207031 C 103.804688 101.996094 91.363281 104.023438 78.980469 106.3125 C 78.394531 106.421875 77.808594 106.53125 77.222656 106.640625 L 77.222656 209.882812 C 77.222656 210.96875 78.113281 211.859375 79.195312 211.859375 L 114.316406 211.859375 C 115.398438 211.859375 116.289062 210.96875 116.289062 209.882812 Z M 116.289062 100.207031 " fill-opacity="1" fill-rule="evenodd"/></g><path fill="#0f1537" d="M 258.714844 138.804688 L 261.832031 138.804688 L 261.832031 155.816406 L 266.957031 155.816406 L 266.957031 158.648438 L 258.714844 158.648438 Z M 258.714844 138.804688 " fill-opacity="1" fill-rule="nonzero"/><path fill="#0f1537" d="M 275.394531 138.804688 L 279.613281 138.804688 L 282.847656 158.648438 L 279.730469 158.648438 L 279.164062 154.710938 L 279.164062 154.769531 L 275.621094 154.769531 L 275.054688 158.648438 L 272.164062 158.648438 Z M 278.792969 152.082031 L 277.40625 142.277344 L 277.347656 142.277344 L 275.992188 152.082031 Z M 278.792969 152.082031 " fill-opacity="1" fill-rule="nonzero"/><path fill="#0f1537" d="M 291.316406 141.640625 L 288.0625 141.640625 L 288.0625 138.804688 L 297.691406 138.804688 L 297.691406 141.640625 L 294.441406 141.640625 L 294.441406 158.648438 L 291.324219 158.648438 L 291.324219 141.640625 Z M 291.316406 141.640625 " fill-opacity="1" fill-rule="nonzero"/><path fill="#0f1537" d="M 306.121094 138.804688 L 310.339844 138.804688 L 313.570312 158.648438 L 310.457031 158.648438 L 309.890625 154.710938 L 309.890625 154.769531 L 306.34375 154.769531 L 305.777344 158.648438 L 302.886719 158.648438 Z M 309.519531 152.082031 L 308.132812 142.277344 L 308.074219 142.277344 L 306.714844 152.082031 Z M 309.519531 152.082031 " fill-opacity="1" fill-rule="nonzero"/><path fill="#0f1537" d="M 319.605469 138.804688 L 324.050781 138.804688 L 326.03125 153.007812 L 326.089844 153.007812 L 328.074219 138.804688 L 332.519531 138.804688 L 332.519531 158.648438 L 329.566406 158.648438 L 329.566406 143.625 L 329.507812 143.625 L 327.242188 158.648438 L 324.636719 158.648438 L 322.371094 143.625 L 322.3125 143.625 L 322.3125 158.648438 L 319.597656 158.648438 L 319.597656 138.804688 Z M 319.605469 138.804688 " fill-opacity="1" fill-rule="nonzero"/><path fill="#0f1537" d="M 169.347656 141.640625 L 166.09375 141.640625 L 166.09375 138.804688 L 175.722656 138.804688 L 175.722656 141.640625 L 172.472656 141.640625 L 172.472656 158.648438 L 169.355469 158.648438 L 169.355469 141.640625 Z M 169.347656 141.640625 " fill-opacity="1" fill-rule="nonzero"/><path fill="#0f1537" d="M 186.28125 138.804688 L 194.777344 138.804688 L 194.777344 141.640625 L 189.394531 141.640625 L 189.394531 146.878906 L 193.671875 146.878906 L 193.671875 149.714844 L 189.394531 149.714844 L 189.394531 155.804688 L 194.777344 155.804688 L 194.777344 158.640625 L 186.28125 158.640625 Z M 186.28125 138.804688 " fill-opacity="1" fill-rule="nonzero"/><path fill="#0f1537" d="M 206.605469 157.664062 C 205.824219 156.8125 205.433594 155.609375 205.433594 154.066406 L 205.433594 143.410156 C 205.433594 141.867188 205.824219 140.664062 206.605469 139.8125 C 207.386719 138.960938 208.527344 138.542969 210.011719 138.542969 C 211.496094 138.542969 212.640625 138.972656 213.429688 139.8125 C 214.210938 140.664062 214.601562 141.867188 214.601562 143.410156 L 214.601562 145.511719 L 211.652344 145.511719 L 211.652344 143.214844 C 211.652344 141.984375 211.136719 141.375 210.101562 141.375 C 209.066406 141.375 208.539062 141.992188 208.539062 143.214844 L 208.539062 154.300781 C 208.539062 155.511719 209.054688 156.117188 210.101562 156.117188 C 211.136719 156.117188 211.652344 155.511719 211.652344 154.300781 L 211.652344 151.269531 L 214.601562 151.269531 L 214.601562 154.074219 C 214.601562 155.628906 214.210938 156.820312 213.429688 157.671875 C 212.648438 158.523438 211.507812 158.953125 210.011719 158.953125 C 208.519531 158.953125 207.386719 158.511719 206.605469 157.664062 Z M 206.605469 157.664062 " fill-opacity="1" fill-rule="nonzero"/><path fill="#0f1537" d="M 225.539062 138.804688 L 228.65625 138.804688 L 228.65625 146.878906 L 231.996094 146.878906 L 231.996094 138.804688 L 235.109375 138.804688 L 235.109375 158.648438 L 231.996094 158.648438 L 231.996094 149.726562 L 228.65625 149.726562 L 228.65625 158.648438 L 225.539062 158.648438 Z M 225.539062 138.804688 " fill-opacity="1" fill-rule="nonzero"/><path fill="#0f1537" d="M 145.332031 77.121094 C 143.230469 74.875 142.175781 71.695312 142.175781 67.589844 L 142.175781 40.609375 C 142.175781 36.503906 143.230469 33.328125 145.332031 31.078125 C 147.429688 28.832031 150.460938 27.707031 154.414062 27.707031 C 158.371094 27.707031 161.398438 28.832031 163.496094 31.078125 C 165.597656 33.328125 166.652344 36.503906 166.652344 40.609375 L 166.652344 67.589844 C 166.652344 71.695312 165.597656 74.875 163.496094 77.121094 C 161.398438 79.371094 158.371094 80.496094 154.414062 80.496094 C 150.460938 80.496094 147.429688 79.371094 145.332031 77.121094 Z M 158.59375 68.109375 L 158.59375 40.101562 C 158.59375 36.730469 157.199219 35.046875 154.414062 35.046875 C 151.632812 35.046875 150.234375 36.730469 150.234375 40.101562 L 150.234375 68.109375 C 150.234375 71.480469 151.632812 73.164062 154.414062 73.164062 C 157.199219 73.164062 158.59375 71.480469 158.59375 68.109375 Z M 158.59375 68.109375 " fill-opacity="1" fill-rule="nonzero"/><path fill="#0f1537" d="M 183.789062 28.441406 L 195.726562 28.441406 C 199.875 28.441406 202.902344 29.410156 204.808594 31.335938 C 206.710938 33.269531 207.667969 36.230469 207.667969 40.238281 L 207.667969 43.386719 C 207.667969 48.714844 205.910156 52.085938 202.394531 53.503906 L 202.394531 53.652344 C 204.347656 54.238281 205.726562 55.441406 206.535156 57.238281 C 207.347656 59.046875 207.746094 61.472656 207.746094 64.503906 L 207.746094 73.515625 C 207.746094 74.980469 207.796875 76.164062 207.894531 77.074219 C 207.992188 77.984375 208.234375 78.871094 208.625 79.753906 L 200.421875 79.753906 C 200.128906 78.921875 199.933594 78.140625 199.835938 77.40625 C 199.738281 76.671875 199.691406 75.351562 199.691406 73.445312 L 199.691406 64.0625 C 199.691406 61.714844 199.308594 60.074219 198.558594 59.144531 C 197.796875 58.214844 196.496094 57.757812 194.640625 57.757812 L 191.855469 57.757812 L 191.855469 79.753906 L 183.800781 79.753906 L 183.800781 28.441406 Z M 194.777344 50.433594 C 196.390625 50.433594 197.601562 50.023438 198.402344 49.183594 C 199.210938 48.351562 199.613281 46.964844 199.613281 45.011719 L 199.613281 41.050781 C 199.613281 39.195312 199.28125 37.855469 198.625 37.011719 C 197.972656 36.183594 196.925781 35.761719 195.511719 35.761719 L 191.847656 35.761719 L 191.847656 50.425781 L 194.777344 50.425781 Z M 194.777344 50.433594 " fill-opacity="1" fill-rule="nonzero"/><path fill="#0f1537" d="M 225.023438 28.441406 L 233.078125 28.441406 L 233.078125 79.761719 L 225.023438 79.761719 Z M 225.023438 28.441406 " fill-opacity="1" fill-rule="nonzero"/><path fill="#0f1537" d="M 249.195312 72.578125 L 264.136719 35.773438 L 249.925781 35.773438 L 249.925781 28.441406 L 272.777344 28.441406 L 272.777344 35.625 L 257.835938 72.429688 L 272.777344 72.429688 L 272.777344 79.761719 L 249.195312 79.761719 Z M 249.195312 72.578125 " fill-opacity="1" fill-rule="nonzero"/><path fill="#0f1537" d="M 291.597656 77.121094 C 289.5 74.875 288.445312 71.695312 288.445312 67.589844 L 288.445312 40.609375 C 288.445312 36.503906 289.5 33.328125 291.597656 31.078125 C 293.699219 28.832031 296.726562 27.707031 300.679688 27.707031 C 304.636719 27.707031 307.664062 28.832031 309.761719 31.078125 C 311.863281 33.328125 312.917969 36.503906 312.917969 40.609375 L 312.917969 67.589844 C 312.917969 71.695312 311.863281 74.875 309.761719 77.121094 C 307.664062 79.371094 304.636719 80.496094 300.679688 80.496094 C 296.726562 80.496094 293.699219 79.371094 291.597656 77.121094 Z M 304.859375 68.109375 L 304.859375 40.101562 C 304.859375 36.730469 303.464844 35.046875 300.679688 35.046875 C 297.898438 35.046875 296.5 36.730469 296.5 40.101562 L 296.5 68.109375 C 296.5 71.480469 297.898438 73.164062 300.679688 73.164062 C 303.464844 73.164062 304.859375 71.480469 304.859375 68.109375 Z M 304.859375 68.109375 " fill-opacity="1" fill-rule="nonzero"/><path fill="#0f1537" d="M 330.054688 28.441406 L 340.164062 28.441406 L 348.007812 59.15625 L 348.152344 59.15625 L 348.152344 28.441406 L 355.332031 28.441406 L 355.332031 79.761719 L 347.050781 79.761719 L 337.382812 42.292969 L 337.234375 42.292969 L 337.234375 79.761719 L 330.054688 79.761719 Z M 330.054688 28.441406 " fill-opacity="1" fill-rule="nonzero"/><path fill="#0f1537" d="M 143.378906 77.121094 C 141.277344 74.875 140.222656 71.695312 140.222656 67.589844 L 140.222656 40.609375 C 140.222656 36.503906 141.277344 33.328125 143.378906 31.078125 C 145.476562 28.832031 148.507812 27.707031 152.460938 27.707031 C 156.417969 27.707031 159.445312 28.832031 161.542969 31.078125 C 163.644531 33.328125 164.699219 36.503906 164.699219 40.609375 L 164.699219 67.589844 C 164.699219 71.695312 163.644531 74.875 161.542969 77.121094 C 159.445312 79.371094 156.417969 80.496094 152.460938 80.496094 C 148.507812 80.496094 145.476562 79.371094 143.378906 77.121094 Z M 156.640625 68.109375 L 156.640625 40.101562 C 156.640625 36.730469 155.246094 35.046875 152.460938 35.046875 C 149.679688 35.046875 148.28125 36.730469 148.28125 40.101562 L 148.28125 68.109375 C 148.28125 71.480469 149.679688 73.164062 152.460938 73.164062 C 155.246094 73.164062 156.640625 71.480469 156.640625 68.109375 Z M 156.640625 68.109375 " fill-opacity="1" fill-rule="nonzero"/><path fill="#0f1537" d="M 181.835938 28.441406 L 193.769531 28.441406 C 197.921875 28.441406 200.949219 29.410156 202.855469 31.335938 C 204.757812 33.269531 205.714844 36.230469 205.714844 40.238281 L 205.714844 43.386719 C 205.714844 48.714844 203.957031 52.085938 200.441406 53.503906 L 200.441406 53.652344 C 202.394531 54.238281 203.773438 55.441406 204.582031 57.238281 C 205.394531 59.046875 205.792969 61.472656 205.792969 64.503906 L 205.792969 73.515625 C 205.792969 74.980469 205.84375 76.164062 205.941406 77.074219 C 206.039062 77.984375 206.28125 78.871094 206.671875 79.753906 L 198.46875 79.753906 C 198.175781 78.921875 197.980469 78.140625 197.882812 77.40625 C 197.785156 76.671875 197.738281 75.351562 197.738281 73.445312 L 197.738281 64.0625 C 197.738281 61.714844 197.355469 60.074219 196.605469 59.144531 C 195.84375 58.214844 194.542969 57.757812 192.6875 57.757812 L 189.902344 57.757812 L 189.902344 79.753906 L 181.847656 79.753906 L 181.847656 28.441406 Z M 192.824219 50.433594 C 194.4375 50.433594 195.648438 50.023438 196.449219 49.183594 C 197.257812 48.351562 197.660156 46.964844 197.660156 45.011719 L 197.660156 41.050781 C 197.660156 39.195312 197.328125 37.855469 196.671875 37.011719 C 196.019531 36.183594 194.972656 35.761719 193.554688 35.761719 L 189.894531 35.761719 L 189.894531 50.425781 L 192.824219 50.425781 Z M 192.824219 50.433594 " fill-opacity="1" fill-rule="nonzero"/><path fill="#0f1537" d="M 223.070312 28.441406 L 231.125 28.441406 L 231.125 79.761719 L 223.070312 79.761719 Z M 223.070312 28.441406 " fill-opacity="1" fill-rule="nonzero"/><path fill="#0f1537" d="M 247.242188 72.578125 L 262.183594 35.773438 L 247.972656 35.773438 L 247.972656 28.441406 L 270.824219 28.441406 L 270.824219 35.625 L 255.882812 72.429688 L 270.824219 72.429688 L 270.824219 79.761719 L 247.242188 79.761719 Z M 247.242188 72.578125 " fill-opacity="1" fill-rule="nonzero"/><path fill="#0f1537" d="M 289.644531 77.121094 C 287.546875 74.875 286.492188 71.695312 286.492188 67.589844 L 286.492188 40.609375 C 286.492188 36.503906 287.546875 33.328125 289.644531 31.078125 C 291.746094 28.832031 294.773438 27.707031 298.726562 27.707031 C 302.683594 27.707031 305.710938 28.832031 307.808594 31.078125 C 309.910156 33.328125 310.964844 36.503906 310.964844 40.609375 L 310.964844 67.589844 C 310.964844 71.695312 309.910156 74.875 307.808594 77.121094 C 305.710938 79.371094 302.683594 80.496094 298.726562 80.496094 C 294.773438 80.496094 291.746094 79.371094 289.644531 77.121094 Z M 302.90625 68.109375 L 302.90625 40.101562 C 302.90625 36.730469 301.511719 35.046875 298.726562 35.046875 C 295.945312 35.046875 294.546875 36.730469 294.546875 40.101562 L 294.546875 68.109375 C 294.546875 71.480469 295.945312 73.164062 298.726562 73.164062 C 301.511719 73.164062 302.90625 71.480469 302.90625 68.109375 Z M 302.90625 68.109375 " fill-opacity="1" fill-rule="nonzero"/><path fill="#0f1537" d="M 328.101562 28.441406 L 338.210938 28.441406 L 346.054688 59.15625 L 346.199219 59.15625 L 346.199219 28.441406 L 353.378906 28.441406 L 353.378906 79.761719 L 345.097656 79.761719 L 335.429688 42.292969 L 335.28125 42.292969 L 335.28125 79.761719 L 328.101562 79.761719 Z M 328.101562 28.441406 " fill-opacity="1" fill-rule="nonzero"/><g clip-path="url(#7c14fb64b6)"><path fill="#0dacb4" d="M 4.953125 142.5 L 4.953125 136.015625 L 9.417969 134.378906 C 10.738281 133.878906 12.082031 133.46875 13.425781 133.058594 C 14.089844 132.855469 14.753906 132.65625 15.414062 132.441406 L 21.441406 130.574219 C 22.6875 130.199219 23.929688 129.808594 25.175781 129.417969 C 27.945312 128.550781 30.71875 127.683594 33.53125 126.96875 L 45.726562 123.800781 C 51.960938 122.121094 58.253906 120.78125 64.550781 119.441406 C 66.464844 119.03125 68.378906 118.625 70.289062 118.207031 C 86.734375 114.828125 103.320312 112.246094 119.960938 110.320312 L 126.199219 109.585938 L 132.449219 108.960938 L 144.949219 107.71875 C 145.292969 107.683594 145.636719 107.652344 145.980469 107.617188 C 149.796875 107.230469 153.625 106.84375 157.453125 106.535156 L 169.953125 105.433594 C 171.519531 105.300781 173.082031 105.15625 174.644531 105.011719 C 177.242188 104.769531 179.84375 104.53125 182.453125 104.347656 L 194.964844 103.417969 L 207.464844 102.5 L 219.972656 101.746094 L 232.484375 101.042969 C 235.257812 100.894531 238.039062 100.777344 240.816406 100.664062 C 242.214844 100.605469 243.609375 100.546875 245.003906 100.484375 C 247.238281 100.394531 249.46875 100.296875 251.699219 100.199219 C 257.8125 99.933594 263.925781 99.667969 270.042969 99.519531 C 286.746094 99 303.445312 98.746094 320.132812 98.589844 L 345.175781 98.550781 L 370.203125 98.882812 L 370.203125 100.027344 L 345.214844 101.003906 L 320.230469 102.175781 C 303.589844 103.078125 286.949219 104.082031 270.335938 105.355469 C 264.238281 105.742188 258.140625 106.246094 252.046875 106.75 C 249.839844 106.929688 247.632812 107.113281 245.425781 107.289062 C 243.949219 107.414062 242.476562 107.535156 241.003906 107.652344 C 238.328125 107.867188 235.652344 108.082031 232.980469 108.335938 L 220.550781 109.519531 L 208.117188 110.664062 L 195.707031 111.972656 L 183.292969 113.292969 C 180.703125 113.554688 178.117188 113.875 175.535156 114.195312 C 173.992188 114.386719 172.445312 114.578125 170.898438 114.757812 C 168.886719 115.011719 166.875 115.261719 164.863281 115.507812 C 158.621094 116.277344 152.382812 117.046875 146.171875 118.023438 L 133.835938 119.851562 L 127.675781 120.78125 L 121.53125 121.816406 L 72.398438 129.734375 L 60.132812 131.765625 C 59.414062 131.886719 58.695312 132 57.972656 132.113281 C 56.644531 132.316406 55.316406 132.523438 54 132.785156 L 47.894531 133.929688 L 35.660156 136.136719 C 34.101562 136.390625 32.5625 136.710938 31.023438 137.027344 C 30.539062 137.128906 30.050781 137.230469 29.566406 137.328125 L 23.472656 138.5625 L 11.273438 141.042969 Z M 4.953125 142.5 " fill-opacity="1" fill-rule="evenodd"/></g><g clip-path="url(#b4a7e144aa)"><path fill="#0dacb4" d="M 4.953125 137.953125 C 10.597656 136.824219 16.242188 135.757812 21.910156 134.757812 C 38.21875 131.804688 54.546875 129.1875 70.894531 126.636719 C 87.242188 124.113281 103.554688 121.335938 119.890625 118.246094 C 136.21875 115.160156 152.648438 112.214844 169.199219 110.152344 C 185.742188 108.042969 202.347656 106.253906 218.996094 104.816406 C 235.636719 103.261719 252.328125 102.03125 269.039062 101.121094 C 302.46875 99.175781 336.003906 98.511719 369.617188 99.195312 L 369.804688 96.75 C 342.222656 93 314.429688 90.800781 286.5625 89.558594 C 271.488281 89.238281 256.410156 89.351562 241.351562 89.722656 C 223.175781 90.203125 205.023438 91.109375 186.90625 92.488281 C 150.683594 95.316406 114.589844 99.734375 78.980469 106.3125 C 61.1875 109.625 43.511719 113.488281 26.195312 118.257812 C 24.019531 118.824219 21.871094 119.460938 19.730469 120.113281 L 13.296875 122.039062 C 11.976562 122.488281 10.652344 122.917969 9.332031 123.351562 C 7.867188 123.828125 6.40625 124.304688 4.953125 124.800781 Z M 4.953125 137.953125 " fill-opacity="1" fill-rule="evenodd"/></g></svg>