<svg width="1223" height="529" viewBox="0 0 1223 529" fill="none" xmlns="http://www.w3.org/2000/svg">
<mask id="mask0_123_10447" style="mask-type:luminance" maskUnits="userSpaceOnUse" x="0" y="0" width="135" height="529">
<path d="M0 0H134.093V529H0V0Z" fill="white"/>
</mask>
<g mask="url(#mask0_123_10447)">
<path fill-rule="evenodd" clip-rule="evenodd" d="M130.81 5.66647C130.81 2.77594 127.827 0.405273 124.204 0.405273H6.60522C2.98216 0.405273 0 2.77594 0 5.66647V256.665L1.12485 256.405C5.61117 255.386 10.0844 254.357 14.5577 253.296L37.1201 248.617C44.6409 247.058 52.1617 245.498 59.6825 244.167C83.3436 239.707 107.057 235.652 130.81 231.929V5.66647ZM130.81 267.302C110.798 271.097 90.8905 275.152 71.1272 279.478C63.8418 280.985 56.648 282.68 49.4803 284.416L27.9381 289.542C23.5172 290.738 19.0832 291.882 14.6623 293.036C9.75742 294.305 4.86563 295.573 0 296.894V523.364C0 526.255 2.98216 528.625 6.60522 528.625H124.204C127.827 528.625 130.81 526.255 130.81 523.364V267.302Z" fill="#0F1537"/>
</g>
<mask id="mask1_123_10447" style="mask-type:luminance" maskUnits="userSpaceOnUse" x="241" y="0" width="135" height="529">
<path d="M241.241 0H375.177V529H241.241V0Z" fill="white"/>
</mask>
<g mask="url(#mask1_123_10447)">
<path fill-rule="evenodd" clip-rule="evenodd" d="M372.796 5.66647C372.796 2.77594 369.814 0.405273 366.191 0.405273H248.592C244.968 0.405273 241.986 2.77594 241.986 5.66647V216.78C285.515 211.664 329.123 207.308 372.796 203.637V5.66647ZM372.796 231.43C330.993 236.192 289.335 241.589 247.872 247.682C245.91 247.973 243.948 248.264 241.986 248.555V523.364C241.986 526.255 244.968 528.625 248.592 528.625H366.191C369.814 528.625 372.796 526.255 372.796 523.364V231.43Z" fill="#0F1537"/>
</g>
<path d="M849.693 334.169H860.131V379.451H877.291V386.989H849.693V334.169Z" fill="#0F1537"/>
<path d="M905.544 334.169H919.67L930.5 386.989H920.063L918.166 376.508V376.664H906.303L904.406 386.989H894.728L905.544 334.169ZM916.924 369.51L912.28 343.412H912.084L907.546 369.51H916.924Z" fill="#0F1537"/>
<path d="M958.855 341.718H947.96V334.169H980.201V341.718H969.319V386.989H958.881V341.718H958.855Z" fill="#0F1537"/>
<path d="M1008.43 334.169H1022.55L1033.37 386.989H1022.95L1021.05 376.508V376.664H1009.17L1007.28 386.989H997.597L1008.43 334.169ZM1019.81 369.51L1015.16 343.412H1014.97L1010.41 369.51H1019.81Z" fill="#0F1537"/>
<path d="M1053.58 334.169H1068.46L1075.09 371.975H1075.29L1081.93 334.169H1096.82V386.989H1086.93V347H1086.73L1079.15 386.989H1070.42L1062.84 347H1062.64V386.989H1053.55V334.169H1053.58Z" fill="#0F1537"/>
<path d="M550.456 341.718H539.561V334.169H571.802V341.718H560.92V386.989H550.482V341.718H550.456Z" fill="#0F1537"/>
<path d="M607.157 334.169H635.605V341.718H617.582V355.661H631.904V363.21H617.582V379.419H635.605V386.968H607.157V334.169Z" fill="#0F1537"/>
<path d="M675.209 384.37C672.593 382.103 671.285 378.901 671.285 374.794V346.429C671.285 342.322 672.593 339.12 675.209 336.853C677.825 334.586 681.644 333.474 686.615 333.474C691.585 333.474 695.417 334.617 698.059 336.853C700.675 339.12 701.983 342.322 701.983 346.429V352.023H692.108V345.909C692.108 342.634 690.381 341.012 686.915 341.012C683.449 341.012 681.683 342.655 681.683 345.909V375.418C681.683 378.641 683.41 380.253 686.915 380.253C690.381 380.253 692.108 378.641 692.108 375.418V367.349H701.983V374.815C701.983 378.953 700.675 382.124 698.059 384.391C695.443 386.657 691.624 387.801 686.615 387.801C681.618 387.801 677.825 386.626 675.209 384.37Z" fill="#0F1537"/>
<path d="M738.607 334.169H749.045V355.661H760.228V334.169H770.653V386.989H760.228V363.241H749.045V386.989H738.607V334.169Z" fill="#0F1537"/>
<path d="M470.041 169.981C463.004 164.002 459.473 155.538 459.473 144.61V72.794C459.473 61.8661 463.004 53.4129 470.041 47.4238C477.065 41.4452 487.215 38.4507 500.451 38.4507C513.701 38.4507 523.838 41.4452 530.861 47.4238C537.898 53.4129 541.43 61.8661 541.43 72.794V144.61C541.43 155.538 537.898 164.002 530.861 169.981C523.838 175.97 513.701 178.964 500.451 178.964C487.215 178.964 477.065 175.97 470.041 169.981ZM514.446 145.993V71.4424C514.446 62.4692 509.777 57.9878 500.451 57.9878C491.138 57.9878 486.456 62.4692 486.456 71.4424V145.993C486.456 154.966 491.138 159.448 500.451 159.448C509.777 159.448 514.446 154.966 514.446 145.993Z" fill="#0F1537"/>
<path d="M598.812 40.4048H638.783C652.674 40.4048 662.81 42.9834 669.193 48.1094C675.563 53.2562 678.767 61.1377 678.767 71.8056V80.1861C678.767 94.3685 672.882 103.342 661.11 107.116V107.511C667.65 109.071 672.267 112.273 674.974 117.056C677.695 121.87 679.029 128.327 679.029 136.396V160.383C679.029 164.282 679.199 167.433 679.526 169.855C679.853 172.278 680.664 174.638 681.972 176.988H654.505C653.524 174.773 652.87 172.694 652.543 170.739C652.216 168.784 652.059 165.27 652.059 160.196V135.221C652.059 128.972 650.777 124.605 648.266 122.13C645.715 119.655 641.36 118.439 635.147 118.439H625.821V176.988H598.851V40.4048H598.812ZM635.605 98.9434C641.006 98.9434 645.061 97.8517 647.743 95.6162C650.45 93.4015 651.797 89.7103 651.797 84.5115V73.9683C651.797 69.0294 650.685 65.4631 648.488 63.2172C646.304 61.0129 642.798 59.8899 638.064 59.8899H625.795V98.9226H635.605V98.9434Z" fill="#0F1537"/>
<path d="M736.88 40.4048H763.85V177.009H736.88V40.4048Z" fill="#0F1537"/>
<path d="M817.819 157.888L867.849 59.9211H820.265V40.4048H896.781V59.526L846.752 157.492H896.781V177.009H817.819V157.888Z" fill="#0F1537"/>
<path d="M959.797 169.981C952.774 164.002 949.242 155.538 949.242 144.61V72.794C949.242 61.8661 952.774 53.4129 959.797 47.4238C966.834 41.4452 976.971 38.4507 990.208 38.4507C1003.46 38.4507 1013.59 41.4452 1020.62 47.4238C1027.65 53.4129 1031.19 61.8661 1031.19 72.794V144.61C1031.19 155.538 1027.65 164.002 1020.62 169.981C1013.59 175.97 1003.46 178.964 990.208 178.964C976.971 178.964 966.834 175.97 959.797 169.981ZM1004.2 145.993V71.4424C1004.2 62.4692 999.533 57.9878 990.208 57.9878C980.895 57.9878 976.212 62.4692 976.212 71.4424V145.993C976.212 154.966 980.895 159.448 990.208 159.448C999.533 159.448 1004.2 154.966 1004.2 145.993Z" fill="#0F1537"/>
<path d="M1088.57 40.4048H1122.42L1148.68 122.161H1149.17V40.4048H1173.21V177.009H1145.48L1113.1 77.2748H1112.61V177.009H1088.57V40.4048Z" fill="#0F1537"/>
<path d="M463.504 169.981C456.467 164.002 452.936 155.538 452.936 144.61V72.794C452.936 61.8661 456.467 53.4129 463.504 47.4238C470.528 41.4452 480.677 38.4507 493.914 38.4507C507.164 38.4507 517.301 41.4452 524.324 47.4238C531.361 53.4129 534.893 61.8661 534.893 72.794V144.61C534.893 155.538 531.361 164.002 524.324 169.981C517.301 175.97 507.164 178.964 493.914 178.964C480.677 178.964 470.528 175.97 463.504 169.981ZM507.909 145.993V71.4424C507.909 62.4692 503.24 57.9878 493.914 57.9878C484.601 57.9878 479.919 62.4692 479.919 71.4424V145.993C479.919 154.966 484.601 159.448 493.914 159.448C503.24 159.448 507.909 154.966 507.909 145.993Z" fill="#0F1537"/>
<path d="M592.273 40.4048H632.232C646.135 40.4048 656.272 42.9834 662.655 48.1094C669.025 53.2562 672.229 61.1377 672.229 71.8056V80.1861C672.229 94.3685 666.344 103.342 654.572 107.116V107.511C661.112 109.071 665.729 112.273 668.436 117.056C671.157 121.87 672.491 128.327 672.491 136.396V160.383C672.491 164.282 672.661 167.433 672.988 169.855C673.315 172.278 674.126 174.638 675.434 176.988H647.967C646.986 174.773 646.332 172.694 646.005 170.739C645.678 168.784 645.521 165.27 645.521 160.196V135.221C645.521 128.972 644.239 124.605 641.728 122.13C639.177 119.655 634.822 118.439 628.609 118.439H619.283V176.988H592.313V40.4048H592.273ZM629.067 98.9434C634.468 98.9434 638.523 97.8517 641.204 95.6162C643.912 93.4015 645.259 89.7103 645.259 84.5115V73.9683C645.259 69.0294 644.147 65.4631 641.95 63.2172C639.766 61.0129 636.26 59.8899 631.512 59.8899H619.257V98.9226H629.067V98.9434Z" fill="#0F1537"/>
<path d="M730.341 40.4048H757.311V177.009H730.341V40.4048Z" fill="#0F1537"/>
<path d="M811.277 157.888L861.307 59.9211H813.723V40.4048H890.239V59.526L840.21 157.492H890.239V177.009H811.277V157.888Z" fill="#0F1537"/>
<path d="M953.255 169.981C946.232 164.002 942.7 155.538 942.7 144.61V72.794C942.7 61.8661 946.232 53.4129 953.255 47.4238C960.292 41.4452 970.429 38.4507 983.666 38.4507C996.915 38.4507 1007.05 41.4452 1014.08 47.4238C1021.11 53.4129 1024.64 61.8661 1024.64 72.794V144.61C1024.64 155.538 1021.11 164.002 1014.08 169.981C1007.05 175.97 996.915 178.964 983.666 178.964C970.429 178.964 960.292 175.97 953.255 169.981ZM997.661 145.993V71.4424C997.661 62.4692 992.991 57.9878 983.666 57.9878C974.353 57.9878 969.67 62.4692 969.67 71.4424V145.993C969.67 154.966 974.353 159.448 983.666 159.448C992.991 159.448 997.661 154.966 997.661 145.993Z" fill="#0F1537"/>
<path d="M1082.03 40.4048H1115.88L1142.14 122.161H1142.63V40.4048H1166.67V177.009H1138.94L1106.56 77.2748H1106.07V177.009H1082.03V40.4048Z" fill="#0F1537"/>
<mask id="mask2_123_10447" style="mask-type:luminance" maskUnits="userSpaceOnUse" x="0" y="225" width="1223" height="121">
<path d="M0 225.556H1223V345.337H0V225.556Z" fill="white"/>
</mask>
<g mask="url(#mask2_123_10447)">
<path fill-rule="evenodd" clip-rule="evenodd" d="M0 344.006V326.746L14.95 322.389C19.371 321.058 23.8704 319.966 28.3698 318.875C30.5933 318.334 32.8169 317.804 35.0273 317.232L55.2092 312.262C59.3816 311.264 63.541 310.224 67.7134 309.184C76.9868 306.876 86.2734 304.567 95.6908 302.665L136.525 294.232C157.401 289.761 178.472 286.195 199.556 282.628C205.965 281.537 212.374 280.455 218.77 279.343C273.836 270.349 329.372 263.476 385.091 258.35L405.979 256.395L426.907 254.732L468.762 251.425C469.913 251.332 471.064 251.248 472.215 251.155C484.994 250.125 497.812 249.096 510.63 248.275L552.485 245.343C557.73 244.989 562.961 244.604 568.193 244.22C576.891 243.575 585.602 242.941 594.339 242.452L636.234 239.977L678.089 237.534L719.97 235.527L761.864 233.656C771.15 233.261 780.463 232.949 789.763 232.647C794.445 232.491 799.115 232.335 803.784 232.169C811.266 231.93 818.734 231.67 826.203 231.41C846.672 230.703 867.142 229.996 887.625 229.601C943.553 228.218 999.469 227.542 1055.34 227.126L1139.2 227.022L1223 227.906V230.952L1139.33 233.552L1055.67 236.671C999.953 239.073 944.233 241.745 888.606 245.135C868.188 246.164 847.771 247.505 827.367 248.847C819.977 249.325 812.587 249.814 805.197 250.281C800.252 250.614 795.321 250.937 790.39 251.248C781.431 251.82 772.471 252.392 763.525 253.068L721.905 256.219L680.273 259.265L638.719 262.748L597.152 266.263C588.48 266.959 579.821 267.812 571.175 268.664C566.009 269.174 560.829 269.683 555.65 270.162C548.914 270.838 542.178 271.503 535.442 272.158C514.541 274.206 493.652 276.255 472.856 278.854L431.55 283.72L410.924 286.195L390.349 288.95L225.833 310.026L184.763 315.433C182.357 315.755 179.95 316.057 177.53 316.358C173.083 316.899 168.636 317.45 164.228 318.147L143.785 321.193L102.819 327.068C97.6004 327.744 92.447 328.596 87.2936 329.439C85.6717 329.709 84.0368 329.979 82.4149 330.239L62.0106 333.525L21.1629 340.127L0 344.006Z" fill="#0DACB4"/>
</g>
<mask id="mask3_123_10447" style="mask-type:luminance" maskUnits="userSpaceOnUse" x="0" y="201" width="1223" height="132">
<path d="M0 201.599H1222.32V332.027H0V201.599Z" fill="white"/>
</mask>
<g mask="url(#mask3_123_10447)">
<path fill-rule="evenodd" clip-rule="evenodd" d="M0 331.902C18.9001 328.897 37.8002 326.059 56.7788 323.397C111.386 315.536 166.059 308.57 220.798 301.78C275.536 295.063 330.157 287.671 384.856 279.446C439.529 271.232 494.542 263.392 549.96 257.902C605.353 252.288 660.954 247.525 716.7 243.699C772.419 239.561 828.308 236.286 884.263 233.863C996.199 228.685 1108.49 226.917 1221.04 228.737L1221.67 222.228C1129.31 212.246 1036.25 206.392 942.939 203.086C892.464 202.233 841.977 202.535 791.555 203.523C730.695 204.802 669.914 207.214 609.25 210.884C487.963 218.412 367.107 230.172 247.873 247.681C188.295 256.499 129.109 266.782 71.1272 279.477C63.8418 280.985 56.648 282.68 49.4803 284.416L27.9381 289.542C23.5172 290.738 19.0832 291.882 14.6623 293.036C9.75743 294.304 4.86563 295.573 0 296.893V331.902Z" fill="#0DACB4"/>
</g>
</svg>
